<?xml version="1.0" encoding="iso-8859-1"?>
<!-- Generator: Adobe Illustrator 22.0.1, SVG Export Plug-In . SVG Version: 6.00 Build 0)  -->
<svg version="1.1" id="Layer_3" xmlns="http://www.w3.org/2000/svg" xmlns:xlink="http://www.w3.org/1999/xlink" x="0px" y="0px"
	 viewBox="0 0 737.527 188.964" style="enable-background:new 0 0 737.527 188.964;" xml:space="preserve">
<g>
	<g>
		<g style="opacity:0.3;">
			<g>
				
					<line style="fill:none;stroke:#0073AE;stroke-width:3;stroke-linecap:round;stroke-linejoin:round;" x1="228.264" y1="43.482" x2="228.264" y2="43.482"/>
				
					<line style="fill:none;stroke:#0073AE;stroke-width:3;stroke-linecap:round;stroke-linejoin:round;" x1="234.264" y1="43.482" x2="234.264" y2="43.482"/>
				
					<line style="fill:none;stroke:#0073AE;stroke-width:3;stroke-linecap:round;stroke-linejoin:round;stroke-dasharray:0,8;" x1="234.264" y1="51.482" x2="234.264" y2="55.482"/>
				
					<line style="fill:none;stroke:#0073AE;stroke-width:3;stroke-linecap:round;stroke-linejoin:round;" x1="234.264" y1="59.482" x2="234.264" y2="59.482"/>
				
					<line style="fill:none;stroke:#0073AE;stroke-width:3;stroke-linecap:round;stroke-linejoin:round;stroke-dasharray:0,6.75;" x1="241.014" y1="59.482" x2="257.889" y2="59.482"/>
				
					<line style="fill:none;stroke:#0073AE;stroke-width:3;stroke-linecap:round;stroke-linejoin:round;" x1="261.264" y1="59.482" x2="261.264" y2="59.482"/>
			</g>
		</g>
		<g style="opacity:0.3;">
			<g>
				
					<line style="fill:none;stroke:#0073AE;stroke-width:3;stroke-linecap:round;stroke-linejoin:round;" x1="59.264" y1="70.482" x2="59.264" y2="70.482"/>
				
					<line style="fill:none;stroke:#0073AE;stroke-width:3;stroke-linecap:round;stroke-linejoin:round;stroke-dasharray:0,7;" x1="66.264" y1="70.482" x2="167.764" y2="70.482"/>
				
					<line style="fill:none;stroke:#0073AE;stroke-width:3;stroke-linecap:round;stroke-linejoin:round;" x1="171.264" y1="70.482" x2="171.264" y2="70.482"/>
				
					<line style="fill:none;stroke:#0073AE;stroke-width:3;stroke-linecap:round;stroke-linejoin:round;stroke-dasharray:0,8.5;" x1="171.264" y1="78.982" x2="171.264" y2="83.232"/>
				
					<line style="fill:none;stroke:#0073AE;stroke-width:3;stroke-linecap:round;stroke-linejoin:round;" x1="171.264" y1="87.482" x2="171.264" y2="87.482"/>
				
					<line style="fill:none;stroke:#0073AE;stroke-width:3;stroke-linecap:round;stroke-linejoin:round;stroke-dasharray:0,6.7692;" x1="178.033" y1="87.482" x2="255.879" y2="87.482"/>
				
					<line style="fill:none;stroke:#0073AE;stroke-width:3;stroke-linecap:round;stroke-linejoin:round;" x1="259.264" y1="87.482" x2="259.264" y2="87.482"/>
			</g>
		</g>
		<g style="opacity:0.3;">
			<g>
				
					<line style="fill:none;stroke:#0073AE;stroke-width:3;stroke-linecap:round;stroke-linejoin:round;" x1="96.264" y1="124.482" x2="96.264" y2="124.482"/>
				
					<line style="fill:none;stroke:#0073AE;stroke-width:3;stroke-linecap:round;stroke-linejoin:round;stroke-dasharray:0,6.6667;" x1="102.93" y1="124.482" x2="112.93" y2="124.482"/>
				
					<line style="fill:none;stroke:#0073AE;stroke-width:3;stroke-linecap:round;stroke-linejoin:round;" x1="116.264" y1="124.482" x2="116.264" y2="124.482"/>
				
					<line style="fill:none;stroke:#0073AE;stroke-width:3;stroke-linecap:round;stroke-linejoin:round;stroke-dasharray:0,6.25;" x1="116.264" y1="118.232" x2="116.264" y2="102.607"/>
				
					<line style="fill:none;stroke:#0073AE;stroke-width:3;stroke-linecap:round;stroke-linejoin:round;" x1="116.264" y1="99.482" x2="116.264" y2="99.482"/>
				
					<line style="fill:none;stroke:#0073AE;stroke-width:3;stroke-linecap:round;stroke-linejoin:round;stroke-dasharray:0,7.15;" x1="123.414" y1="99.482" x2="255.689" y2="99.482"/>
				
					<line style="fill:none;stroke:#0073AE;stroke-width:3;stroke-linecap:round;stroke-linejoin:round;" x1="259.264" y1="99.482" x2="259.264" y2="99.482"/>
			</g>
		</g>
		<g style="opacity:0.3;">
			<g>
				
					<line style="fill:none;stroke:#0073AE;stroke-width:3;stroke-linecap:round;stroke-linejoin:round;" x1="178.264" y1="153.482" x2="178.264" y2="153.482"/>
				
					<line style="fill:none;stroke:#0073AE;stroke-width:3;stroke-linecap:round;stroke-linejoin:round;stroke-dasharray:0,6.6667;" x1="184.93" y1="153.482" x2="214.93" y2="153.482"/>
				
					<line style="fill:none;stroke:#0073AE;stroke-width:3;stroke-linecap:round;stroke-linejoin:round;" x1="218.264" y1="153.482" x2="218.264" y2="153.482"/>
				
					<line style="fill:none;stroke:#0073AE;stroke-width:3;stroke-linecap:round;stroke-linejoin:round;stroke-dasharray:0,7.2;" x1="218.264" y1="146.282" x2="218.264" y2="121.082"/>
				
					<line style="fill:none;stroke:#0073AE;stroke-width:3;stroke-linecap:round;stroke-linejoin:round;" x1="218.264" y1="117.482" x2="218.264" y2="117.482"/>
				
					<line style="fill:none;stroke:#0073AE;stroke-width:3;stroke-linecap:round;stroke-linejoin:round;stroke-dasharray:0,6.8333;" x1="225.097" y1="117.482" x2="255.847" y2="117.482"/>
				
					<line style="fill:none;stroke:#0073AE;stroke-width:3;stroke-linecap:round;stroke-linejoin:round;" x1="259.264" y1="117.482" x2="259.264" y2="117.482"/>
			</g>
		</g>
	</g>
	<g>
		<g style="opacity:0.3;">
			<g>
				
					<line style="fill:none;stroke:#0073AE;stroke-width:3;stroke-linecap:round;stroke-linejoin:round;" x1="555.264" y1="33.482" x2="555.264" y2="33.482"/>
				
					<line style="fill:none;stroke:#0073AE;stroke-width:3;stroke-linecap:round;stroke-linejoin:round;stroke-dasharray:0,7.6;" x1="547.664" y1="33.482" x2="521.064" y2="33.482"/>
				
					<line style="fill:none;stroke:#0073AE;stroke-width:3;stroke-linecap:round;stroke-linejoin:round;" x1="517.264" y1="33.482" x2="517.264" y2="33.482"/>
				
					<line style="fill:none;stroke:#0073AE;stroke-width:3;stroke-linecap:round;stroke-linejoin:round;stroke-dasharray:0,7.2;" x1="517.264" y1="40.682" x2="517.264" y2="65.882"/>
				
					<line style="fill:none;stroke:#0073AE;stroke-width:3;stroke-linecap:round;stroke-linejoin:round;" x1="517.264" y1="69.482" x2="517.264" y2="69.482"/>
				
					<line style="fill:none;stroke:#0073AE;stroke-width:3;stroke-linecap:round;stroke-linejoin:round;stroke-dasharray:0,6.8333;" x1="510.43" y1="69.482" x2="479.68" y2="69.482"/>
				
					<line style="fill:none;stroke:#0073AE;stroke-width:3;stroke-linecap:round;stroke-linejoin:round;" x1="476.264" y1="69.482" x2="476.264" y2="69.482"/>
			</g>
		</g>
		<g style="opacity:0.3;">
			<g>
				
					<line style="fill:none;stroke:#0073AE;stroke-width:3;stroke-linecap:round;stroke-linejoin:round;" x1="631.264" y1="61.482" x2="631.264" y2="61.482"/>
				
					<line style="fill:none;stroke:#0073AE;stroke-width:3;stroke-linecap:round;stroke-linejoin:round;stroke-dasharray:0,7.5;" x1="623.764" y1="61.482" x2="620.014" y2="61.482"/>
				
					<line style="fill:none;stroke:#0073AE;stroke-width:3;stroke-linecap:round;stroke-linejoin:round;" x1="616.264" y1="61.482" x2="616.264" y2="61.482"/>
				
					<line style="fill:none;stroke:#0073AE;stroke-width:3;stroke-linecap:round;stroke-linejoin:round;stroke-dasharray:0,7;" x1="616.264" y1="68.482" x2="616.264" y2="85.982"/>
				
					<line style="fill:none;stroke:#0073AE;stroke-width:3;stroke-linecap:round;stroke-linejoin:round;" x1="616.264" y1="89.482" x2="616.264" y2="89.482"/>
				
					<line style="fill:none;stroke:#0073AE;stroke-width:3;stroke-linecap:round;stroke-linejoin:round;stroke-dasharray:0,7;" x1="609.264" y1="89.482" x2="479.764" y2="89.482"/>
				
					<line style="fill:none;stroke:#0073AE;stroke-width:3;stroke-linecap:round;stroke-linejoin:round;" x1="476.264" y1="89.482" x2="476.264" y2="89.482"/>
			</g>
		</g>
		<g style="opacity:0.3;">
			<g>
				
					<line style="fill:none;stroke:#0073AE;stroke-width:3;stroke-linecap:round;stroke-linejoin:round;" x1="677.264" y1="115.482" x2="677.264" y2="115.482"/>
				
					<line style="fill:none;stroke:#0073AE;stroke-width:3;stroke-linecap:round;stroke-linejoin:round;stroke-dasharray:0,6.8333;" x1="670.43" y1="115.482" x2="557.68" y2="115.482"/>
				
					<line style="fill:none;stroke:#0073AE;stroke-width:3;stroke-linecap:round;stroke-linejoin:round;" x1="554.264" y1="115.482" x2="554.264" y2="115.482"/>
				
					<line style="fill:none;stroke:#0073AE;stroke-width:3;stroke-linecap:round;stroke-linejoin:round;stroke-dasharray:0,7.5;" x1="554.264" y1="107.982" x2="554.264" y2="104.232"/>
				
					<line style="fill:none;stroke:#0073AE;stroke-width:3;stroke-linecap:round;stroke-linejoin:round;" x1="554.264" y1="100.482" x2="554.264" y2="100.482"/>
				
					<line style="fill:none;stroke:#0073AE;stroke-width:3;stroke-linecap:round;stroke-linejoin:round;stroke-dasharray:0,7.0909;" x1="547.173" y1="100.482" x2="479.809" y2="100.482"/>
				
					<line style="fill:none;stroke:#0073AE;stroke-width:3;stroke-linecap:round;stroke-linejoin:round;" x1="476.264" y1="100.482" x2="476.264" y2="100.482"/>
			</g>
		</g>
		<g style="opacity:0.3;">
			<g>
				
					<line style="fill:none;stroke:#0073AE;stroke-width:3;stroke-linecap:round;stroke-linejoin:round;" x1="559.264" y1="154.482" x2="559.264" y2="154.482"/>
				
					<line style="fill:none;stroke:#0073AE;stroke-width:3;stroke-linecap:round;stroke-linejoin:round;stroke-dasharray:0,7;" x1="552.264" y1="154.482" x2="513.764" y2="154.482"/>
				
					<line style="fill:none;stroke:#0073AE;stroke-width:3;stroke-linecap:round;stroke-linejoin:round;" x1="510.264" y1="154.482" x2="510.264" y2="154.482"/>
				
					<line style="fill:none;stroke:#0073AE;stroke-width:3;stroke-linecap:round;stroke-linejoin:round;stroke-dasharray:0,7.6;" x1="510.264" y1="146.882" x2="510.264" y2="120.282"/>
				
					<line style="fill:none;stroke:#0073AE;stroke-width:3;stroke-linecap:round;stroke-linejoin:round;" x1="510.264" y1="116.482" x2="510.264" y2="116.482"/>
				
					<line style="fill:none;stroke:#0073AE;stroke-width:3;stroke-linecap:round;stroke-linejoin:round;stroke-dasharray:0,6.8;" x1="503.464" y1="116.482" x2="479.664" y2="116.482"/>
				
					<line style="fill:none;stroke:#0073AE;stroke-width:3;stroke-linecap:round;stroke-linejoin:round;" x1="476.264" y1="116.482" x2="476.264" y2="116.482"/>
			</g>
		</g>
	</g>
	
		<circle style="opacity:0.2;fill:none;stroke:#0073AE;stroke-width:2;stroke-linecap:round;stroke-linejoin:round;stroke-miterlimit:10;" cx="585.264" cy="34.482" r="24.5"/>
	
		<circle style="opacity:0.2;fill:none;stroke:#0073AE;stroke-width:2;stroke-linecap:round;stroke-linejoin:round;stroke-miterlimit:10;" cx="198.264" cy="43.482" r="24.5"/>
	
		<circle style="opacity:0.2;fill:none;stroke:#0073AE;stroke-width:2;stroke-linecap:round;stroke-linejoin:round;stroke-miterlimit:10;" cx="30.264" cy="70.482" r="24.5"/>
	
		<circle style="opacity:0.2;fill:none;stroke:#0073AE;stroke-width:2;stroke-linecap:round;stroke-linejoin:round;stroke-miterlimit:10;" cx="68.264" cy="124.482" r="24.5"/>
	
		<circle style="opacity:0.2;fill:none;stroke:#0073AE;stroke-width:2;stroke-linecap:round;stroke-linejoin:round;stroke-miterlimit:10;" cx="147.264" cy="154.482" r="24.5"/>
	
		<circle style="opacity:0.2;fill:none;stroke:#0073AE;stroke-width:2;stroke-linecap:round;stroke-linejoin:round;stroke-miterlimit:10;" cx="661.264" cy="61.482" r="24.5"/>
	
		<circle style="opacity:0.2;fill:none;stroke:#0073AE;stroke-width:2;stroke-linecap:round;stroke-linejoin:round;stroke-miterlimit:10;" cx="707.264" cy="115.482" r="24.5"/>
	
		<circle style="opacity:0.2;fill:none;stroke:#0073AE;stroke-width:2;stroke-linecap:round;stroke-linejoin:round;stroke-miterlimit:10;" cx="588.264" cy="154.482" r="24.5"/>
	<g>
		<g>
			<path style="fill:#FFFFFF;stroke:#0073AE;stroke-width:2;stroke-miterlimit:10;" d="M461.764,170.499
				c0,3.327-2.728,6.05-6.06,6.05h-172.88c-3.333,0-6.06-2.724-6.06-6.05V41.032c0-3.328,2.727-6.051,6.06-6.051h172.88
				c3.332,0,6.06,2.723,6.06,6.051V170.499"/>
			<polyline style="fill:#FFDBB2;" points="454.764,157.982 283.764,157.982 283.764,42.17 454.764,42.17 454.764,157.982 			"/>
			<polyline style="opacity:0.5;fill:#FF8800;" points="454.764,44.982 283.764,44.982 283.764,42.17 454.764,42.17 454.764,44.982 
							"/>
			<path style="opacity:0.5;fill:#FF8800;" d="M433.764,157.982h-129v-5.833c0-0.644,0.522-1.167,1.167-1.167h126.667
				c0.644,0,1.167,0.522,1.167,1.167V157.982"/>
			<circle style="fill:#0073AE;" cx="369.264" cy="38.739" r="1.544"/>
			<path style="fill:#B2D5E6;stroke:#0073AE;stroke-width:2;stroke-linecap:round;stroke-linejoin:round;stroke-miterlimit:10;" d="
				M393.671,164.982c-1.193,2.924-4.068,5-7.408,5h-35c-3.34,0-6.214-2.076-7.408-5h-92.092v3.717c0,4.574,3.708,8.283,8.283,8.283
				h217.435c4.574,0,8.283-3.708,8.283-8.283v-3.717H393.671z"/>
			
				<line style="fill:none;stroke:#FFDBB2;stroke-width:2;stroke-miterlimit:10;" x1="424.764" y1="148.982" x2="424.764" y2="157.982"/>
		</g>
		<path style="fill:#FFFFFF;" d="M395.18,137.982h-52.833c-0.871,0-1.583-0.713-1.583-1.583V62.565c0-0.871,0.712-1.583,1.583-1.583
			h52.833c0.871,0,1.583,0.712,1.583,1.583v73.833C396.764,137.269,396.051,137.982,395.18,137.982z"/>
		<g>
			<circle style="fill:#FFDBB2;" cx="368.764" cy="93.982" r="18"/>
			<g>
				<defs>
					<circle id="SVGID_1_" cx="368.764" cy="93.982" r="18"/>
				</defs>
				<clipPath id="SVGID_2_">
					<use xlink:href="#SVGID_1_"  style="overflow:visible;"/>
				</clipPath>
				<g style="clip-path:url(#SVGID_2_);">
					<g>
						<g>
							
								<path style="fill:#FFFFFF;stroke:#0073AE;stroke-width:2;stroke-linecap:round;stroke-linejoin:round;stroke-miterlimit:10;" d="
								M382.352,107.388l-1.317-4.671c-0.136-0.488-0.626-1.06-1.086-1.271l-7.493-3.287c-0.003-0.001-0.006-0.003-0.01-0.004v-1.37
								c1.13-1.402,1.842-3.439,1.842-5.708v-1.825c0-3.223-2.473-5.835-5.524-5.835l0,0l0,0l0,0c-3.051,0-5.524,2.612-5.524,5.835
								v1.825c0,2.268,0.712,4.307,1.842,5.709v1.369c-0.003,0.001-0.007,0.003-0.01,0.004l-7.493,3.287
								c-0.461,0.211-0.95,0.783-1.086,1.271l-1.318,4.671c-0.136,0.488,0.165,0.887,0.672,0.887l12.917,6.626l0,0l12.917-6.626
								C382.188,108.275,382.489,107.876,382.352,107.388z"/>
						</g>
					</g>
				</g>
			</g>
			
				<circle style="fill:none;stroke:#0073AE;stroke-width:2;stroke-linecap:round;stroke-linejoin:round;stroke-miterlimit:10;" cx="368.764" cy="93.982" r="18"/>
		</g>
		<path style="fill:#FFDBB2;" d="M363.264,132.982h-12c-1.925,0-3.5-1.575-3.5-3.5v0c0-1.925,1.575-3.5,3.5-3.5h12
			c1.925,0,3.5,1.575,3.5,3.5v0C366.764,131.407,365.189,132.982,363.264,132.982z"/>
		<path style="fill:#B2D5E6;" d="M386.264,132.982h-12c-1.925,0-3.5-1.575-3.5-3.5v0c0-1.925,1.575-3.5,3.5-3.5h12
			c1.925,0,3.5,1.575,3.5,3.5v0C389.764,131.407,388.189,132.982,386.264,132.982z"/>
	</g>
	<path style="fill:none;stroke:#0073AE;stroke-width:2;stroke-linecap:round;stroke-linejoin:round;stroke-miterlimit:10;" d="
		M694.967,122.113l11.064-9.637c-0.717-2.965,0.226-6.227,2.683-8.404c2.794-2.437,6.721-2.701,9.816-1.013l-6.052,5.472
		l3.741,4.276l6.049-5.507c1.325,3.262,0.494,7.089-2.302,9.528c-2.455,2.174-5.814,2.663-8.684,1.536l-11.069,9.639
		c-1.659,1.428-4.152,1.277-5.585-0.337l0,0C693.193,126.053,693.342,123.541,694.967,122.113L694.967,122.113z"/>
	<g>
		<path style="fill:none;stroke:#0073AE;stroke-width:2;stroke-linecap:round;stroke-linejoin:round;stroke-miterlimit:10;" d="
			M575.764,152.982v-1c0-6.6,5.4-12,12-12h1c6.6,0,12,5.4,12,12v1"/>
		<path style="fill:none;stroke:#0073AE;stroke-width:2;stroke-linecap:round;stroke-linejoin:round;stroke-miterlimit:10;" d="
			M600.764,162.982L600.764,162.982c-1.65,0-3-1.35-3-3v-4c0-1.65,1.35-3,3-3l0,0c1.65,0,3,1.35,3,3v4
			C603.764,161.632,602.414,162.982,600.764,162.982z"/>
		<path style="fill:none;stroke:#0073AE;stroke-width:2;stroke-linecap:round;stroke-linejoin:round;stroke-miterlimit:10;" d="
			M575.764,162.982L575.764,162.982c-1.65,0-3-1.35-3-3v-4c0-1.65,1.35-3,3-3l0,0c1.65,0,3,1.35,3,3v4
			C578.764,161.632,577.414,162.982,575.764,162.982z"/>
		<path style="fill:none;stroke:#0073AE;stroke-width:2;stroke-linecap:round;stroke-linejoin:round;stroke-miterlimit:10;" d="
			M600.764,162.982c0,0,0,7-13,7"/>
		<g>
			<path style="fill:#0073AE;" d="M588.264,165.982c0.828,0,1.5,0.672,1.5,1.5s-0.672,1.5-1.5,1.5s-1.5-0.672-1.5-1.5
				S587.435,165.982,588.264,165.982 M588.264,164.232c-1.792,0-3.25,1.458-3.25,3.25s1.458,3.25,3.25,3.25s3.25-1.458,3.25-3.25
				S590.056,164.232,588.264,164.232L588.264,164.232z"/>
		</g>
		<path style="fill:none;stroke:#0073AE;stroke-width:2;stroke-linecap:round;stroke-linejoin:round;stroke-miterlimit:10;" d="
			M577.764,145.982l0.785,0.738c0.624,0.587,1.596,0.487,2.138-0.178c1.779-2.184,4.338-3.56,7.173-3.56h0.81
			c2.786,0,5.306,1.33,7.081,3.45c0.574,0.686,1.647,0.638,2.205-0.061l0.809-1.014"/>
	</g>
	<g>
		<path style="fill:none;stroke:#0073AE;stroke-width:2;stroke-linecap:round;stroke-linejoin:round;stroke-miterlimit:10;" d="
			M661.697,48.483c-5.297,0-9.59,4.179-9.59,9.332c0,6.296,4.576,6.865,5.23,10.379c0,0.988,0.78,1.787,1.744,1.787h5.232
			c0.964,0,1.744-0.799,1.744-1.787c0.639-3.594,5.23-3.968,5.23-10.379C671.288,52.662,666.994,48.483,661.697,48.483z"/>
		
			<line style="fill:none;stroke:#0073AE;stroke-width:2;stroke-linecap:round;stroke-linejoin:round;stroke-miterlimit:10;" x1="658.764" y1="72.982" x2="664.764" y2="72.982"/>
		
			<line style="fill:none;stroke:#0073AE;stroke-width:2;stroke-linejoin:round;stroke-miterlimit:10;" x1="661.764" y1="60.982" x2="661.764" y2="69.982"/>
		
			<line style="fill:none;stroke:#0073AE;stroke-width:2;stroke-linecap:round;stroke-linejoin:round;stroke-miterlimit:10;" x1="658.764" y1="75.982" x2="664.764" y2="75.982"/>
		
			<line style="fill:none;stroke:#0073AE;stroke-width:2;stroke-linecap:round;stroke-linejoin:round;stroke-miterlimit:10;" x1="660.764" y1="77.982" x2="662.764" y2="77.982"/>
		<g>
			<path style="fill:#0073AE;" d="M661.764,55.982c1.105,0,2,0.895,2,2c0,1.105-0.895,2-2,2s-2-0.895-2-2
				C659.764,56.877,660.659,55.982,661.764,55.982 M661.764,53.982c-2.206,0-4,1.794-4,4s1.794,4,4,4s4-1.794,4-4
				S663.969,53.982,661.764,53.982L661.764,53.982z"/>
		</g>
	</g>
	<g>
		<path style="fill:none;stroke:#0073AE;stroke-width:2;stroke-linecap:round;stroke-linejoin:round;stroke-miterlimit:10;" d="
			M585.764,19.982c8.284,0,15,6.716,15,15s-6.716,15-15,15c-8.284,0-15-6.716-15-15c0-2.677,0.701-5.19,1.93-7.366"/>
		<polyline style="fill:none;stroke:#0073AE;stroke-width:2;stroke-linejoin:round;stroke-miterlimit:10;" points="569.046,26.792 
			574.068,25.701 575.159,30.723 		"/>
		<g>
			<path style="fill:#0073AE;" d="M585.264,33.982c0.828,0,1.5,0.672,1.5,1.5s-0.672,1.5-1.5,1.5s-1.5-0.672-1.5-1.5
				S584.435,33.982,585.264,33.982 M585.264,32.232c-1.792,0-3.25,1.458-3.25,3.25s1.458,3.25,3.25,3.25s3.25-1.458,3.25-3.25
				S587.056,32.232,585.264,32.232L585.264,32.232z"/>
		</g>
		<g>
			
				<line style="fill:none;stroke:#0073AE;stroke-width:1.75;stroke-linecap:round;stroke-linejoin:round;stroke-miterlimit:10;" x1="586.764" y1="33.982" x2="592.764" y2="27.982"/>
		</g>
		
			<line style="fill:none;stroke:#0073AE;stroke-width:1.75;stroke-linecap:round;stroke-linejoin:round;stroke-miterlimit:10;" x1="586.764" y1="36.982" x2="590.764" y2="40.982"/>
	</g>
	<path style="fill-rule:evenodd;clip-rule:evenodd;fill:none;stroke:#0073AE;stroke-width:2;stroke-miterlimit:10;" d="
		M70.662,130.1c0.59,0.298,1.3,0.368,1.833-0.171c0.533-0.54,2.132-2.46,2.132-2.46s0.52-0.592,1.287-0.105
		c0.767,0.487,2.184,1.513,5.136,3.381c0.468,0.395,0.26,1.027,0.26,1.027s-2.068,3.368-5.305,5.013
		c-0.728,0.461-2.419-0.026-2.419-0.026s-13.601-3.074-18.282-17.073c-0.29-0.627-0.026-1.754-0.026-1.754s0.407-2.496,4.148-5.71
		c0.605-0.52,1.253-0.026,1.253-0.026s1.823,1.911,4.109,5.105c0.25,0.35,0.052,0.947-0.139,1.07
		c-1.595,1.28-2.531,2.859-2.531,2.859s-0.173,0.649,0.191,1.105C62.674,122.789,65.565,127.469,70.662,130.1z"/>
	<g>
		<path style="fill-rule:evenodd;clip-rule:evenodd;fill:none;stroke:#0073AE;stroke-width:2;stroke-miterlimit:10;" d="
			M139.014,168.982h-3.5c-1.513,0-2.75-1.238-2.75-2.75v-23.5c0-1.513,1.237-2.75,2.75-2.75h3.5c1.512,0,2.75,1.237,2.75,2.75v23.5
			C141.764,167.744,140.526,168.982,139.014,168.982z"/>
		<path style="fill-rule:evenodd;clip-rule:evenodd;fill:none;stroke:#0073AE;stroke-width:2;stroke-miterlimit:10;" d="
			M157.054,166.982h-15.29v-25h15.29c2.04,0,3.71,1.669,3.71,3.71v17.58C160.764,165.312,159.094,166.982,157.054,166.982z"/>
		<path style="fill-rule:evenodd;clip-rule:evenodd;fill:none;stroke:#0073AE;stroke-width:2;stroke-miterlimit:10;" d="
			M155.576,151.982h-8.625c-0.656,0-1.188-0.532-1.188-1.188v-4.625c0-0.656,0.532-1.188,1.188-1.188h8.625
			c0.656,0,1.188,0.532,1.188,1.188v4.625C156.764,151.45,156.232,151.982,155.576,151.982z"/>
		<g>
			
				<line style="fill:none;stroke:#0073AE;stroke-width:2;stroke-linecap:round;stroke-linejoin:round;stroke-miterlimit:10;" x1="145.764" y1="155.982" x2="146.764" y2="155.982"/>
			
				<line style="fill:none;stroke:#0073AE;stroke-width:2;stroke-linecap:round;stroke-linejoin:round;stroke-miterlimit:10;" x1="150.764" y1="155.982" x2="151.764" y2="155.982"/>
			
				<line style="fill:none;stroke:#0073AE;stroke-width:2;stroke-linecap:round;stroke-linejoin:round;stroke-miterlimit:10;" x1="155.764" y1="155.982" x2="156.764" y2="155.982"/>
		</g>
		<g>
			
				<line style="fill:none;stroke:#0073AE;stroke-width:2;stroke-linecap:round;stroke-linejoin:round;stroke-miterlimit:10;" x1="145.764" y1="158.982" x2="146.764" y2="158.982"/>
			
				<line style="fill:none;stroke:#0073AE;stroke-width:2;stroke-linecap:round;stroke-linejoin:round;stroke-miterlimit:10;" x1="150.764" y1="158.982" x2="151.764" y2="158.982"/>
			
				<line style="fill:none;stroke:#0073AE;stroke-width:2;stroke-linecap:round;stroke-linejoin:round;stroke-miterlimit:10;" x1="155.764" y1="158.982" x2="156.764" y2="158.982"/>
		</g>
		<g>
			
				<line style="fill:none;stroke:#0073AE;stroke-width:2;stroke-linecap:round;stroke-linejoin:round;stroke-miterlimit:10;" x1="145.764" y1="161.982" x2="146.764" y2="161.982"/>
			
				<line style="fill:none;stroke:#0073AE;stroke-width:2;stroke-linecap:round;stroke-linejoin:round;stroke-miterlimit:10;" x1="150.764" y1="161.982" x2="151.764" y2="161.982"/>
			
				<line style="fill:none;stroke:#0073AE;stroke-width:2;stroke-linecap:round;stroke-linejoin:round;stroke-miterlimit:10;" x1="155.764" y1="161.982" x2="156.764" y2="161.982"/>
		</g>
	</g>
	<path style="fill:none;stroke:#0073AE;stroke-width:2;stroke-linecap:round;stroke-linejoin:round;stroke-miterlimit:10;" d="
		M35.43,84.982H25.097c-1.833,0-3.333-1.5-3.333-3.333V59.315c0-1.833,1.5-3.333,3.333-3.333H35.43c1.833,0,3.333,1.5,3.333,3.333
		v22.333C38.764,83.482,37.264,84.982,35.43,84.982z"/>
	
		<line style="fill:none;stroke:#0073AE;stroke-width:2;stroke-linecap:round;stroke-linejoin:round;stroke-miterlimit:10;" x1="28.764" y1="59.982" x2="31.764" y2="59.982"/>
	
		<line style="fill:none;stroke:#0073AE;stroke-width:2;stroke-linecap:round;stroke-linejoin:round;stroke-miterlimit:10;" x1="29.764" y1="80.982" x2="30.764" y2="80.982"/>
	
		<line style="fill:none;stroke:#0073AE;stroke-width:2;stroke-linecap:round;stroke-linejoin:round;stroke-miterlimit:10;" x1="22.764" y1="76.982" x2="37.764" y2="76.982"/>
	<g>
		<path style="fill:none;stroke:#0073AE;stroke-width:2;stroke-linecap:round;stroke-linejoin:round;stroke-miterlimit:10;" d="
			M211.125,54.982h-25.723c-1.451,0-2.638-1.187-2.638-2.638V33.62c0-1.451,1.187-2.638,2.638-2.638h25.723
			c1.451,0,2.638,1.187,2.638,2.638v18.723C213.764,53.795,212.576,54.982,211.125,54.982z"/>
		
			<line style="fill:none;stroke:#0073AE;stroke-width:2;stroke-linecap:round;stroke-linejoin:round;stroke-miterlimit:10;" x1="194.264" y1="58.982" x2="202.264" y2="58.982"/>
		
			<line style="fill:none;stroke:#0073AE;stroke-width:2;stroke-linecap:round;stroke-linejoin:round;stroke-miterlimit:10;" x1="183.764" y1="49.982" x2="212.764" y2="49.982"/>
	</g>
</g>
</svg>
