<?xml version="1.0" encoding="iso-8859-1"?>
<!-- Generator: Adobe Illustrator 22.0.1, SVG Export Plug-In . SVG Version: 6.00 Build 0)  -->
<svg version="1.1" id="Layer_3" xmlns="http://www.w3.org/2000/svg" xmlns:xlink="http://www.w3.org/1999/xlink" x="0px" y="0px"
	 viewBox="0 0 737.527 188.964" style="enable-background:new 0 0 737.527 188.964;" xml:space="preserve">
<g>
	<g style="opacity:0.3;">
		<g>
			
				<line style="fill:none;stroke:#0073AE;stroke-width:3;stroke-linecap:round;stroke-linejoin:round;" x1="211.514" y1="28.524" x2="211.514" y2="28.524"/>
			
				<line style="fill:none;stroke:#0073AE;stroke-width:3;stroke-linecap:round;stroke-linejoin:round;stroke-dasharray:0,6.6667;" x1="218.18" y1="28.524" x2="228.18" y2="28.524"/>
			
				<line style="fill:none;stroke:#0073AE;stroke-width:3;stroke-linecap:round;stroke-linejoin:round;" x1="231.514" y1="28.524" x2="231.514" y2="28.524"/>
			
				<line style="fill:none;stroke:#0073AE;stroke-width:3;stroke-linecap:round;stroke-linejoin:round;stroke-dasharray:0,8;" x1="231.514" y1="36.524" x2="231.514" y2="40.524"/>
			
				<line style="fill:none;stroke:#0073AE;stroke-width:3;stroke-linecap:round;stroke-linejoin:round;" x1="231.514" y1="44.524" x2="231.514" y2="44.524"/>
			
				<line style="fill:none;stroke:#0073AE;stroke-width:3;stroke-linecap:round;stroke-linejoin:round;stroke-dasharray:0,6.625;" x1="238.139" y1="44.524" x2="281.201" y2="44.524"/>
			
				<line style="fill:none;stroke:#0073AE;stroke-width:3;stroke-linecap:round;stroke-linejoin:round;" x1="284.514" y1="44.524" x2="284.514" y2="44.524"/>
		</g>
	</g>
	<g style="opacity:0.3;">
		<g>
			
				<line style="fill:none;stroke:#0073AE;stroke-width:3;stroke-linecap:round;stroke-linejoin:round;" x1="96.514" y1="48.524" x2="96.514" y2="48.524"/>
			
				<line style="fill:none;stroke:#0073AE;stroke-width:3;stroke-linecap:round;stroke-linejoin:round;stroke-dasharray:0,7.3333;" x1="103.847" y1="48.524" x2="114.847" y2="48.524"/>
			
				<line style="fill:none;stroke:#0073AE;stroke-width:3;stroke-linecap:round;stroke-linejoin:round;" x1="118.514" y1="48.524" x2="118.514" y2="48.524"/>
			
				<line style="fill:none;stroke:#0073AE;stroke-width:3;stroke-linecap:round;stroke-linejoin:round;stroke-dasharray:0,8;" x1="118.514" y1="56.524" x2="118.514" y2="68.524"/>
			
				<line style="fill:none;stroke:#0073AE;stroke-width:3;stroke-linecap:round;stroke-linejoin:round;" x1="118.514" y1="72.524" x2="118.514" y2="72.524"/>
			
				<line style="fill:none;stroke:#0073AE;stroke-width:3;stroke-linecap:round;stroke-linejoin:round;stroke-dasharray:0,6.9167;" x1="125.43" y1="72.524" x2="281.055" y2="72.524"/>
			
				<line style="fill:none;stroke:#0073AE;stroke-width:3;stroke-linecap:round;stroke-linejoin:round;" x1="284.514" y1="72.524" x2="284.514" y2="72.524"/>
		</g>
	</g>
	<g style="opacity:0.3;">
		<g>
			
				<line style="fill:none;stroke:#0073AE;stroke-width:3;stroke-linecap:round;stroke-linejoin:round;" x1="57.514" y1="121.524" x2="57.514" y2="121.524"/>
			
				<line style="fill:none;stroke:#0073AE;stroke-width:3;stroke-linecap:round;stroke-linejoin:round;stroke-dasharray:0,7.1176;" x1="64.631" y1="121.524" x2="174.955" y2="121.524"/>
			
				<line style="fill:none;stroke:#0073AE;stroke-width:3;stroke-linecap:round;stroke-linejoin:round;" x1="178.514" y1="121.524" x2="178.514" y2="121.524"/>
			
				<line style="fill:none;stroke:#0073AE;stroke-width:3;stroke-linecap:round;stroke-linejoin:round;stroke-dasharray:0,6.25;" x1="178.514" y1="115.274" x2="178.514" y2="99.649"/>
			
				<line style="fill:none;stroke:#0073AE;stroke-width:3;stroke-linecap:round;stroke-linejoin:round;" x1="178.514" y1="96.524" x2="178.514" y2="96.524"/>
			
				<line style="fill:none;stroke:#0073AE;stroke-width:3;stroke-linecap:round;stroke-linejoin:round;stroke-dasharray:0,7.0667;" x1="185.58" y1="96.524" x2="280.98" y2="96.524"/>
			
				<line style="fill:none;stroke:#0073AE;stroke-width:3;stroke-linecap:round;stroke-linejoin:round;" x1="284.514" y1="96.524" x2="284.514" y2="96.524"/>
		</g>
	</g>
	<g style="opacity:0.3;">
		<g>
			
				<line style="fill:none;stroke:#0073AE;stroke-width:3;stroke-linecap:round;stroke-linejoin:round;" x1="156.514" y1="162.524" x2="156.514" y2="162.524"/>
			
				<line style="fill:none;stroke:#0073AE;stroke-width:3;stroke-linecap:round;stroke-linejoin:round;stroke-dasharray:0,7.25;" x1="163.764" y1="162.524" x2="210.889" y2="162.524"/>
			
				<line style="fill:none;stroke:#0073AE;stroke-width:3;stroke-linecap:round;stroke-linejoin:round;" x1="214.514" y1="162.524" x2="214.514" y2="162.524"/>
			
				<line style="fill:none;stroke:#0073AE;stroke-width:3;stroke-linecap:round;stroke-linejoin:round;stroke-dasharray:0,7.4;" x1="214.514" y1="155.124" x2="214.514" y2="129.224"/>
			
				<line style="fill:none;stroke:#0073AE;stroke-width:3;stroke-linecap:round;stroke-linejoin:round;" x1="214.514" y1="125.524" x2="214.514" y2="125.524"/>
			
				<line style="fill:none;stroke:#0073AE;stroke-width:3;stroke-linecap:round;stroke-linejoin:round;stroke-dasharray:0,6.9;" x1="221.414" y1="125.524" x2="280.064" y2="125.524"/>
			
				<line style="fill:none;stroke:#0073AE;stroke-width:3;stroke-linecap:round;stroke-linejoin:round;" x1="283.514" y1="125.524" x2="283.514" y2="125.524"/>
		</g>
	</g>
</g>
<g>
	<g style="opacity:0.3;">
		<g>
			
				<line style="fill:none;stroke:#0073AE;stroke-width:3;stroke-linecap:round;stroke-linejoin:round;" x1="588.514" y1="28.524" x2="588.514" y2="28.524"/>
			
				<line style="fill:none;stroke:#0073AE;stroke-width:3;stroke-linecap:round;stroke-linejoin:round;stroke-dasharray:0,6.6667;" x1="581.847" y1="28.524" x2="531.847" y2="28.524"/>
			
				<line style="fill:none;stroke:#0073AE;stroke-width:3;stroke-linecap:round;stroke-linejoin:round;" x1="528.514" y1="28.524" x2="528.514" y2="28.524"/>
			
				<line style="fill:none;stroke:#0073AE;stroke-width:3;stroke-linecap:round;stroke-linejoin:round;stroke-dasharray:0,7.2;" x1="528.514" y1="35.724" x2="528.514" y2="60.924"/>
			
				<line style="fill:none;stroke:#0073AE;stroke-width:3;stroke-linecap:round;stroke-linejoin:round;" x1="528.514" y1="64.524" x2="528.514" y2="64.524"/>
			
				<line style="fill:none;stroke:#0073AE;stroke-width:3;stroke-linecap:round;stroke-linejoin:round;stroke-dasharray:0,6.6667;" x1="521.847" y1="64.524" x2="471.847" y2="64.524"/>
			
				<line style="fill:none;stroke:#0073AE;stroke-width:3;stroke-linecap:round;stroke-linejoin:round;" x1="468.514" y1="64.524" x2="468.514" y2="64.524"/>
		</g>
	</g>
	<g style="opacity:0.3;">
		<g>
			
				<line style="fill:none;stroke:#0073AE;stroke-width:3;stroke-linecap:round;stroke-linejoin:round;" x1="679.514" y1="68.524" x2="679.514" y2="68.524"/>
			
				<line style="fill:none;stroke:#0073AE;stroke-width:3;stroke-linecap:round;stroke-linejoin:round;stroke-dasharray:0,7.0625;" x1="672.451" y1="68.524" x2="570.045" y2="68.524"/>
			
				<line style="fill:none;stroke:#0073AE;stroke-width:3;stroke-linecap:round;stroke-linejoin:round;" x1="566.514" y1="68.524" x2="566.514" y2="68.524"/>
			
				<line style="fill:none;stroke:#0073AE;stroke-width:3;stroke-linecap:round;stroke-linejoin:round;stroke-dasharray:0,8;" x1="566.514" y1="76.524" x2="566.514" y2="88.524"/>
			
				<line style="fill:none;stroke:#0073AE;stroke-width:3;stroke-linecap:round;stroke-linejoin:round;" x1="566.514" y1="92.524" x2="566.514" y2="92.524"/>
			
				<line style="fill:none;stroke:#0073AE;stroke-width:3;stroke-linecap:round;stroke-linejoin:round;stroke-dasharray:0,7;" x1="559.514" y1="92.524" x2="472.014" y2="92.524"/>
			
				<line style="fill:none;stroke:#0073AE;stroke-width:3;stroke-linecap:round;stroke-linejoin:round;" x1="468.514" y1="92.524" x2="468.514" y2="92.524"/>
		</g>
	</g>
	<g style="opacity:0.3;">
		<g>
			
				<line style="fill:none;stroke:#0073AE;stroke-width:3;stroke-linecap:round;stroke-linejoin:round;" x1="649.514" y1="144.524" x2="649.514" y2="144.524"/>
			
				<line style="fill:none;stroke:#0073AE;stroke-width:3;stroke-linecap:round;stroke-linejoin:round;stroke-dasharray:0,7.6667;" x1="641.847" y1="144.524" x2="630.347" y2="144.524"/>
			
				<line style="fill:none;stroke:#0073AE;stroke-width:3;stroke-linecap:round;stroke-linejoin:round;" x1="626.514" y1="144.524" x2="626.514" y2="144.524"/>
			
				<line style="fill:none;stroke:#0073AE;stroke-width:3;stroke-linecap:round;stroke-linejoin:round;stroke-dasharray:0,7;" x1="626.514" y1="137.524" x2="626.514" y2="120.024"/>
			
				<line style="fill:none;stroke:#0073AE;stroke-width:3;stroke-linecap:round;stroke-linejoin:round;" x1="626.514" y1="116.524" x2="626.514" y2="116.524"/>
			
				<line style="fill:none;stroke:#0073AE;stroke-width:3;stroke-linecap:round;stroke-linejoin:round;stroke-dasharray:0,6.8696;" x1="619.644" y1="116.524" x2="471.948" y2="116.524"/>
			
				<line style="fill:none;stroke:#0073AE;stroke-width:3;stroke-linecap:round;stroke-linejoin:round;" x1="468.514" y1="116.524" x2="468.514" y2="116.524"/>
		</g>
	</g>
	<g style="opacity:0.3;">
		<g>
			
				<line style="fill:none;stroke:#0073AE;stroke-width:3;stroke-linecap:round;stroke-linejoin:round;" x1="529.514" y1="161.524" x2="529.514" y2="161.524"/>
			
				<line style="fill:none;stroke:#0073AE;stroke-width:3;stroke-linecap:round;stroke-linejoin:round;stroke-dasharray:0,6;" x1="523.514" y1="161.524" x2="514.514" y2="161.524"/>
			
				<line style="fill:none;stroke:#0073AE;stroke-width:3;stroke-linecap:round;stroke-linejoin:round;" x1="511.514" y1="161.524" x2="511.514" y2="161.524"/>
			
				<line style="fill:none;stroke:#0073AE;stroke-width:3;stroke-linecap:round;stroke-linejoin:round;stroke-dasharray:0,8;" x1="511.514" y1="153.524" x2="511.514" y2="149.524"/>
			
				<line style="fill:none;stroke:#0073AE;stroke-width:3;stroke-linecap:round;stroke-linejoin:round;" x1="511.514" y1="145.524" x2="511.514" y2="145.524"/>
			
				<line style="fill:none;stroke:#0073AE;stroke-width:3;stroke-linecap:round;stroke-linejoin:round;stroke-dasharray:0,7.3333;" x1="504.18" y1="145.524" x2="471.18" y2="145.524"/>
			
				<line style="fill:none;stroke:#0073AE;stroke-width:3;stroke-linecap:round;stroke-linejoin:round;" x1="467.514" y1="145.524" x2="467.514" y2="145.524"/>
		</g>
	</g>
</g>
<g>
	<path style="fill:#B2D5E6;stroke:#0073AE;stroke-width:2;stroke-miterlimit:10;" d="M449.405,149.088H301.419
		c-2.183,0-3.953-1.769-3.953-3.951V17.362c0-2.182,1.77-3.951,3.953-3.951h147.986c2.184,0,3.953,1.769,3.953,3.951v127.775
		C453.357,147.319,451.588,149.088,449.405,149.088z"/>
	<path style="fill:#B2D5E6;stroke:#0073AE;stroke-width:2;stroke-miterlimit:10;" d="M352.483,17.362v127.775
		c0,2.182,1.77,3.951,3.951,3.951h92.97c2.184,0,3.953-1.769,3.953-3.951V17.362c0-2.182-1.769-3.951-3.953-3.951h-92.97
		C354.253,13.411,352.483,15.18,352.483,17.362z"/>
	<path style="fill:#FFFFFF;stroke:#0073AE;stroke-width:2;stroke-miterlimit:10;" d="M453.339,17.077
		c0-1.967-1.769-3.562-3.953-3.562h-92.97c-2.181,0-3.951,1.595-3.951,3.562v39.114c-0.009,0.175-0.029,0.349-0.029,0.525
		c0,12.648,22.587,22.901,50.449,22.901c27.862,0,50.449-10.253,50.449-22.901c0-0.369-0.023-0.736-0.061-1.101
		c0.02-0.056,0.047-0.109,0.066-0.165V17.077z"/>
	<path style="fill:#FFDBB2;stroke:#FF8800;stroke-width:2;stroke-miterlimit:10;" d="M432.7,63.728h-59.625
		c-1.663,0-3.011-1.348-3.011-3.011v-33.18c0-1.663,1.349-3.011,3.011-3.011H432.7c1.663,0,3.011,1.348,3.011,3.011v33.18
		C435.711,62.379,434.363,63.728,432.7,63.728z"/>
	<g>
		<g>
			<path style="fill:#FFFFFF;stroke:#0073AE;stroke-width:2;stroke-miterlimit:10;" d="M385.696,96.428h-5.162
				c-1.769,0-3.203-1.434-3.203-3.203V88.06c0-1.769,1.434-3.203,3.203-3.203h5.162c1.769,0,3.203,1.434,3.203,3.203v5.165
				C388.899,94.994,387.465,96.428,385.696,96.428z"/>
		</g>
		<g>
			<path style="fill:#FFFFFF;stroke:#0073AE;stroke-width:2;stroke-miterlimit:10;" d="M405.011,96.428h-5.162
				c-1.769,0-3.203-1.434-3.203-3.203V88.06c0-1.769,1.434-3.203,3.203-3.203h5.162c1.769,0,3.203,1.434,3.203,3.203v5.165
				C408.214,94.994,406.78,96.428,405.011,96.428z"/>
		</g>
		<g>
			<path style="fill:#FFFFFF;stroke:#0073AE;stroke-width:2;stroke-miterlimit:10;" d="M424.325,96.428h-5.162
				c-1.769,0-3.203-1.434-3.203-3.203V88.06c0-1.769,1.434-3.203,3.203-3.203h5.162c1.769,0,3.203,1.434,3.203,3.203v5.165
				C427.528,94.994,426.094,96.428,424.325,96.428z"/>
		</g>
		<g>
			<path style="fill:#FFFFFF;stroke:#0073AE;stroke-width:2;stroke-miterlimit:10;" d="M385.696,115.742h-5.162
				c-1.769,0-3.203-1.434-3.203-3.203v-5.165c0-1.769,1.434-3.203,3.203-3.203h5.162c1.769,0,3.203,1.434,3.203,3.203v5.165
				C388.899,114.308,387.465,115.742,385.696,115.742z"/>
		</g>
		<g>
			<path style="fill:#FFFFFF;stroke:#0073AE;stroke-width:2;stroke-miterlimit:10;" d="M405.011,115.742h-5.162
				c-1.769,0-3.203-1.434-3.203-3.203v-5.165c0-1.769,1.434-3.203,3.203-3.203h5.162c1.769,0,3.203,1.434,3.203,3.203v5.165
				C408.214,114.308,406.78,115.742,405.011,115.742z"/>
		</g>
		<g>
			<path style="fill:#FFFFFF;stroke:#0073AE;stroke-width:2;stroke-miterlimit:10;" d="M424.325,115.742h-5.162
				c-1.769,0-3.203-1.434-3.203-3.203v-5.165c0-1.769,1.434-3.203,3.203-3.203h5.162c1.769,0,3.203,1.434,3.203,3.203v5.165
				C427.528,114.308,426.094,115.742,424.325,115.742z"/>
		</g>
		<g>
			<path style="fill:#FFFFFF;stroke:#0073AE;stroke-width:2;stroke-miterlimit:10;" d="M385.696,135.057h-5.162
				c-1.769,0-3.203-1.434-3.203-3.203v-5.165c0-1.769,1.434-3.203,3.203-3.203h5.162c1.769,0,3.203,1.434,3.203,3.203v5.165
				C388.899,133.623,387.465,135.057,385.696,135.057z"/>
		</g>
		<g>
			<path style="fill:#FFFFFF;stroke:#0073AE;stroke-width:2;stroke-miterlimit:10;" d="M405.011,135.057h-5.162
				c-1.769,0-3.203-1.434-3.203-3.203v-5.165c0-1.769,1.434-3.203,3.203-3.203h5.162c1.769,0,3.203,1.434,3.203,3.203v5.165
				C408.214,133.623,406.78,135.057,405.011,135.057z"/>
		</g>
		<g>
			<path style="fill:#FFFFFF;stroke:#0073AE;stroke-width:2;stroke-miterlimit:10;" d="M424.325,135.057h-5.162
				c-1.769,0-3.203-1.434-3.203-3.203v-5.165c0-1.769,1.434-3.203,3.203-3.203h5.162c1.769,0,3.203,1.434,3.203,3.203v5.165
				C427.528,133.623,426.094,135.057,424.325,135.057z"/>
		</g>
	</g>
	<path style="opacity:0.5;fill:#0073AE;" d="M310.661,141.175c-0.279,1.25-0.44,2.547-0.44,3.881c0,1.335,0.153,2.633,0.433,3.883
		h34.497c0.28-1.25,0.433-2.548,0.433-3.883c0-1.334-0.161-2.631-0.44-3.881c-1.497-14.091-5.851-64.326,2.464-107.898
		c1.179-2.663,1.845-5.602,1.845-8.703c0-4.088-1.138-7.911-3.116-11.167h-36.871c-1.977,3.257-3.116,7.079-3.116,11.167
		c0,3.101,0.668,6.041,1.847,8.703C316.512,76.85,312.158,127.084,310.661,141.175z"/>
	<path style="opacity:0.5;fill:#0073AE;" d="M453.33,16.911c-0.045-0.87-0.434-1.657-1.05-2.255
		c-0.721-0.765-1.741-1.245-2.875-1.245h-5.571v135.677h5.571c2.184,0,3.953-1.769,3.953-3.951V17.362
		C453.357,17.209,453.346,17.059,453.33,16.911z"/>
	<path style="fill:#FFFFFF;stroke:#0073AE;stroke-width:2;stroke-miterlimit:10;" d="M344.032,33.278
		c1.179-2.663,1.845-5.602,1.845-8.703c0-11.902-9.647-21.551-21.551-21.551c-11.903,0-21.552,9.649-21.552,21.551
		c0,3.101,0.668,6.041,1.847,8.703c8.315,43.572,3.961,93.806,2.464,107.898c-0.279,1.25-0.44,2.547-0.44,3.881
		c0,9.765,7.915,17.682,17.681,17.682c9.766,0,17.681-7.917,17.681-17.682c0-1.334-0.161-2.631-0.44-3.881
		C340.07,127.084,335.717,76.85,344.032,33.278z"/>
	
		<line style="fill:none;stroke:#FFFFFF;stroke-width:2;stroke-linecap:round;stroke-linejoin:round;stroke-miterlimit:10;" x1="398.37" y1="54.257" x2="396.014" y2="57.024"/>
	
		<line style="fill:none;stroke:#FFFFFF;stroke-width:2;stroke-linecap:round;stroke-linejoin:round;stroke-miterlimit:10;" x1="419.014" y1="30.024" x2="401.421" y2="50.676"/>
	
		<line style="fill:none;stroke:#FFFFFF;stroke-width:2;stroke-linecap:round;stroke-linejoin:round;stroke-miterlimit:10;" x1="407.014" y1="32.024" x2="394.014" y2="47.024"/>
</g>
<circle style="opacity:0.2;fill:none;stroke:#0073AE;stroke-width:2;stroke-linecap:round;stroke-linejoin:round;stroke-miterlimit:10;" cx="618.514" cy="28.524" r="24.5"/>
<circle style="opacity:0.2;fill:none;stroke:#0073AE;stroke-width:2;stroke-linecap:round;stroke-linejoin:round;stroke-miterlimit:10;" cx="181.514" cy="28.524" r="24.5"/>
<circle style="opacity:0.2;fill:none;stroke:#0073AE;stroke-width:2;stroke-linecap:round;stroke-linejoin:round;stroke-miterlimit:10;" cx="66.514" cy="48.524" r="24.5"/>
<circle style="opacity:0.2;fill:none;stroke:#0073AE;stroke-width:2;stroke-linecap:round;stroke-linejoin:round;stroke-miterlimit:10;" cx="27.514" cy="121.524" r="24.5"/>
<circle style="opacity:0.2;fill:none;stroke:#0073AE;stroke-width:2;stroke-linecap:round;stroke-linejoin:round;stroke-miterlimit:10;" cx="127.514" cy="162.524" r="24.5"/>
<circle style="opacity:0.2;fill:none;stroke:#0073AE;stroke-width:2;stroke-linecap:round;stroke-linejoin:round;stroke-miterlimit:10;" cx="708.514" cy="67.524" r="24.5"/>
<circle style="opacity:0.2;fill:none;stroke:#0073AE;stroke-width:2;stroke-linecap:round;stroke-linejoin:round;stroke-miterlimit:10;" cx="678.514" cy="145.524" r="24.5"/>
<circle style="opacity:0.2;fill:none;stroke:#0073AE;stroke-width:2;stroke-linecap:round;stroke-linejoin:round;stroke-miterlimit:10;" cx="558.514" cy="161.524" r="24.5"/>
<path style="fill:#0073AE;stroke:#0073AE;stroke-width:0.75;stroke-miterlimit:10;" d="M618.514,12.613
	c-8.773,0-15.91,7.137-15.91,15.91s7.137,15.91,15.91,15.91s15.91-7.137,15.91-15.91S627.287,12.613,618.514,12.613z
	 M632.973,24.931c-0.572,0.097-0.863,0.389-1.006,0.639c-0.173,0.302-0.293,0.81,0.116,1.512c0.165,0.282,0.21,0.419,0.222,0.475
	c-0.035,0.031-0.094,0.075-0.142,0.111c-0.254,0.19-0.703,0.527-0.793,1.141c-0.095,0.064-0.228,0.143-0.282,0.176
	c-0.636,0.378-1.958,1.164-1.603,3.011c0.3,1.559,0.017,2.593-2.248,5.638c-0.692,0.93-1.327,1.276-1.692,1.29
	c-0.158,0.006-0.303-0.054-0.422-0.19c-0.434-0.498-0.578-1.625-0.387-3.016c0.669-4.857-1.508-6.177-1.757-6.311
	c-0.252-0.136-0.571-0.146-0.843-0.013c-0.009,0.004-0.881,0.426-1.859,0.426c-1.282,0-2.099-0.752-2.498-2.3
	c-0.543-2.104,0.482-2.864,1.475-3.6c0.6-0.445,1.221-0.906,1.287-1.679c0.04-0.478-0.153-0.944-0.575-1.386
	c-0.268-0.28-0.39-0.535-0.363-0.757c0.036-0.291,0.298-0.594,0.562-0.808c1.119-0.114,2.49-0.426,2.992-1.253
	c0.235-0.387,0.265-0.855,0.081-1.283c-0.003-0.006-0.005-0.012-0.007-0.018c0.077-0.024,0.153-0.047,0.207-0.063l0.285-0.087
	c0.889-0.277,1.414-0.831,1.703-1.258C629.143,17.285,631.937,20.763,632.973,24.931z M618.514,13.624
	c0.442,0,0.878,0.023,1.311,0.061c-0.009,0.053-0.018,0.106-0.032,0.154c-0.04,0.133-0.238,0.262-0.514,0.339
	c-0.104,0.028-0.209,0.05-0.315,0.073c-0.279,0.06-0.596,0.127-0.894,0.294c-0.315,0.176-0.546,0.427-0.751,0.648
	c-0.135,0.147-0.263,0.286-0.399,0.387c-0.333,0.249-0.809,0.303-1.196,0.148c-0.264-0.448-0.351-1.002-0.231-1.507l-0.615-0.146
	C616.041,13.781,617.259,13.624,618.514,13.624z M612.022,15.114c-0.207,0.816-0.024,1.737,0.562,2.358
	c0.215,0.227,0.453,0.397,0.684,0.56c0.116,0.083,0.233,0.165,0.343,0.255c0.378,0.308,0.76,0.832,0.699,1.377
	c-0.032,0.293-0.775,1.155-1.132,1.569c-0.339,0.393-0.606,0.703-0.733,0.936c-0.057,0.106-0.133,0.252-0.637,0.002
	c-0.18-0.088-0.297-0.188-0.422-0.294c-0.235-0.199-0.526-0.447-1.106-0.481c-0.561-0.031-0.978,0.321-1.305,0.605l-0.125,0.108
	c-0.578,0.485-1.314,0.755-2.094,1.04c-0.246,0.09-0.491,0.18-0.732,0.277c-0.787,0.315-1.411,0.698-1.874,1.143
	C605.298,20.407,608.206,16.969,612.022,15.114z M603.614,28.524c0-0.088,0.005-0.175,0.007-0.263
	c0.327,0.434,0.759,0.609,1.411,0.621c0.423,0.007,1.003,0.018,2.227,1.085c1.498,1.306,2.766,1.918,3.69,2.365
	c1.005,0.486,1.273,0.652,1.384,1.041c0.161,0.566,0.005,0.95-0.212,1.483c-0.216,0.53-0.46,1.127-0.355,1.891
	c-0.012,0.007-0.025,0.014-0.039,0.022c-0.582,0.327-1.555,0.874-1.834,2.941c-0.038,0.283-0.071,0.58-0.098,0.888
	C606.054,37.886,603.614,33.486,603.614,28.524z M618.514,43.424c-2.837,0-5.492-0.798-7.751-2.18
	c0.031-0.493,0.073-0.967,0.132-1.401c0.212-1.568,0.831-1.916,1.329-2.195c0.356-0.2,0.663-0.373,0.556-0.961
	c-0.097-0.533,0.076-0.958,0.278-1.45c0.237-0.581,0.505-1.24,0.248-2.142c-0.248-0.867-0.911-1.187-1.916-1.673
	c-0.874-0.422-2.07-1-3.466-2.217c-1.501-1.309-2.36-1.324-2.873-1.333c-0.495-0.009-0.7-0.012-1.02-1.186
	c-0.098-0.358-0.152-0.633-0.169-0.844c0.006-0.035,0.012-0.071,0.019-0.106l0.482,0.222c0.291-0.632,0.977-1.168,2.04-1.595
	c0.231-0.093,0.467-0.179,0.703-0.265c0.827-0.303,1.683-0.616,2.396-1.215l0.138-0.118c0.209-0.182,0.426-0.352,0.583-0.36
	c0.243,0.015,0.316,0.077,0.512,0.243c0.15,0.128,0.338,0.287,0.629,0.43c1.24,0.612,1.792-0.094,1.972-0.426
	c0.075-0.138,0.359-0.468,0.61-0.759c0.764-0.886,1.309-1.557,1.371-2.117c0.089-0.805-0.309-1.654-1.064-2.271
	c-0.128-0.105-0.263-0.201-0.399-0.296c-0.199-0.142-0.388-0.275-0.533-0.43c-0.499-0.528-0.51-1.463-0.024-2.003l-0.159-0.143
	c0.436-0.169,0.882-0.319,1.337-0.447c-0.126,0.765,0.047,1.581,0.485,2.222l0.07,0.102l0.109,0.058
	c0.323,0.173,0.685,0.257,1.047,0.257c0.477,0,0.952-0.147,1.339-0.435c0.211-0.157,0.377-0.337,0.539-0.512
	c0.168-0.182,0.327-0.354,0.5-0.451c0.165-0.092,0.383-0.139,0.613-0.188c0.125-0.027,0.25-0.054,0.372-0.087
	c0.635-0.175,1.066-0.536,1.212-1.018c0.028-0.091,0.047-0.193,0.066-0.294c0.002-0.01,0.004-0.023,0.006-0.035
	c1.287,0.202,2.518,0.571,3.675,1.081c-0.213,0.274-0.55,0.573-1.079,0.737l-0.28,0.085c-0.55,0.166-0.772,0.244-0.915,0.413
	l-0.702,0.831h0.7c0.023,0.061,0.049,0.128,0.081,0.202c0.056,0.13,0.05,0.251-0.016,0.361c-0.221,0.364-1.171,0.679-2.365,0.785
	l-0.139,0.012l-0.112,0.081c-0.291,0.211-0.978,0.786-1.076,1.583c-0.067,0.538,0.147,1.069,0.635,1.579
	c0.321,0.336,0.304,0.536,0.299,0.601c-0.026,0.303-0.352,0.56-0.884,0.953c-1.021,0.757-2.563,1.901-1.851,4.664
	c0.652,2.527,2.25,3.057,3.476,3.057c1.052,0,1.989-0.387,2.259-0.51c0.256,0.175,1.736,1.37,1.2,5.26
	c-0.238,1.726-0.016,3.082,0.625,3.818c0.307,0.352,0.706,0.537,1.158,0.537c0.021,0,0.043,0,0.065-0.001
	c0.798-0.031,1.672-0.633,2.463-1.697c2.287-3.074,2.809-4.457,2.43-6.431c-0.205-1.064,0.389-1.514,1.127-1.952
	c0.425-0.253,0.76-0.453,0.76-0.821c0-0.236,0.153-0.367,0.406-0.557c0.584-0.438,0.787-0.87,0.185-1.902
	c-0.076-0.129-0.19-0.365-0.112-0.5c0.055-0.096,0.204-0.136,0.338-0.153c0.15,0.846,0.232,1.715,0.232,2.604
	C633.414,36.74,626.73,43.424,618.514,43.424z"/>
<path style="fill:none;stroke:#0073AE;stroke-width:2;stroke-linecap:round;stroke-linejoin:round;stroke-miterlimit:10;" d="
	M721.09,56.456c-0.091-0.244-0.223-0.478-0.427-0.673c-0.003-0.004-0.009-0.005-0.014-0.009c-0.005-0.006-0.006-0.01-0.011-0.015
	c-0.203-0.196-0.443-0.322-0.696-0.409c-0.884-0.395-1.957-0.257-2.684,0.449l-5.032,4.888l-14.957-2.605l-1.56,2.149l11.806,5.732
	l-3.807,3.742l-4.932-0.086l-1.136,1.101l4.182,3.343l3.474,4.03l1.134-1.103l-0.112-4.769l3.852-3.699l5.979,11.394l2.215-1.52
	l-2.76-14.452l5.032-4.89C721.364,58.348,721.501,57.309,721.09,56.456z"/>
<g>
	
		<polygon style="fill-rule:evenodd;clip-rule:evenodd;fill:none;stroke:#0073AE;stroke-width:2;stroke-linecap:round;stroke-linejoin:round;stroke-miterlimit:10;" points="
		569.014,171.024 549.014,171.024 549.014,159.024 559.014,153.024 569.014,159.024 	"/>
	
		<line style="fill-rule:evenodd;clip-rule:evenodd;fill:none;stroke:#0073AE;stroke-width:2;stroke-linecap:round;stroke-linejoin:round;stroke-miterlimit:10;" x1="571.014" y1="171.024" x2="547.014" y2="171.024"/>
	
		<polyline style="fill-rule:evenodd;clip-rule:evenodd;fill:none;stroke:#0073AE;stroke-width:2;stroke-linecap:round;stroke-linejoin:round;stroke-miterlimit:10;" points="
		545.014,157.357 559.014,148.69 573.014,157.357 	"/>
	
		<path style="fill-rule:evenodd;clip-rule:evenodd;fill:none;stroke:#0073AE;stroke-width:2;stroke-linecap:round;stroke-linejoin:round;stroke-miterlimit:10;" d="
		M561.014,171.024h-4v-6.938c0-0.587,0.476-1.063,1.062-1.063h1.875c0.587,0,1.063,0.476,1.063,1.063V171.024z"/>
</g>
<g>
	<path style="fill-rule:evenodd;clip-rule:evenodd;fill:none;stroke:#0073AE;stroke-width:2;stroke-miterlimit:10;" d="
		M687.982,156.024h-17.938c-0.57,0-1.031-0.462-1.031-1.031v-18.885c0-1.703,1.38-3.083,3.083-3.083h13.833
		c1.703,0,3.083,1.38,3.083,3.083v18.885C689.014,155.562,688.552,156.024,687.982,156.024z"/>
	<g>
		
			<line style="fill:none;stroke:#0073AE;stroke-width:2;stroke-miterlimit:10;" x1="671.014" y1="148.024" x2="687.014" y2="148.024"/>
	</g>
	<g>
		
			<line style="fill:none;stroke:#0073AE;stroke-width:2;stroke-linecap:round;stroke-linejoin:round;stroke-miterlimit:10;" x1="672.014" y1="152.024" x2="675.014" y2="152.024"/>
	</g>
	<g>
		
			<line style="fill:none;stroke:#0073AE;stroke-width:2;stroke-linecap:round;stroke-linejoin:round;stroke-miterlimit:10;" x1="683.014" y1="152.024" x2="686.014" y2="152.024"/>
	</g>
	<g>
		<path style="fill:none;stroke:#0073AE;stroke-width:2;stroke-linecap:round;stroke-linejoin:round;stroke-miterlimit:10;" d="
			M692.014,144.024v-2.458c0-0.851-0.69-1.542-1.542-1.542h-1.458"/>
	</g>
	<g>
		<path style="fill:none;stroke:#0073AE;stroke-width:2;stroke-linecap:round;stroke-linejoin:round;stroke-miterlimit:10;" d="
			M666.014,144.024v-2.458c0-0.851,0.69-1.542,1.542-1.542h1.458"/>
	</g>
	<g>
		<path style="fill:#0073AE;" d="M673.014,157.024v1h-1v-1H673.014 M673.014,155.024h-1c-1.105,0-2,0.895-2,2v1c0,1.105,0.895,2,2,2
			h1c1.105,0,2-0.895,2-2v-1C675.014,155.919,674.118,155.024,673.014,155.024L673.014,155.024z"/>
	</g>
	<g>
		<path style="fill:#0073AE;" d="M686.014,157.024v1h-1v-1H686.014 M686.014,155.024h-1c-1.105,0-2,0.895-2,2v1c0,1.105,0.895,2,2,2
			h1c1.105,0,2-0.895,2-2v-1C688.014,155.919,687.118,155.024,686.014,155.024L686.014,155.024z"/>
	</g>
	
		<line style="fill:none;stroke:#0073AE;stroke-width:1.75;stroke-linecap:round;stroke-linejoin:round;stroke-miterlimit:10;" x1="685.014" y1="137.024" x2="678.014" y2="145.024"/>
	
		<line style="fill:none;stroke:#0073AE;stroke-width:1.75;stroke-linecap:round;stroke-linejoin:round;stroke-miterlimit:10;" x1="679.014" y1="137.024" x2="674.014" y2="143.024"/>
</g>
<g>
	<g>
		<g>
			<path style="fill:none;stroke:#0073AE;stroke-width:2;stroke-linecap:round;stroke-linejoin:round;stroke-miterlimit:10;" d="
				M66.514,33.024c-4.501,0-9.407,3.326-9.407,9.161c0,6.752,6.278,13.059,9.407,16.808c3.131-3.749,9.408-10.056,9.408-16.808
				C75.921,36.404,70.907,33.024,66.514,33.024z M66.416,47.277c-2.386,0-4.32-2-4.32-4.466c0-2.466,1.934-4.464,4.32-4.464
				c2.385,0,4.319,1.999,4.319,4.464C70.735,45.277,68.801,47.277,66.416,47.277z"/>
		</g>
	</g>
	<path style="fill:none;stroke:#0073AE;stroke-width:1.75;stroke-linecap:round;stroke-linejoin:round;stroke-miterlimit:10;" d="
		M61.014,58.297c-1.833,0.416-3,1.034-3,1.727c0,1.252,3.806,2.267,8.5,2.267s8.5-1.015,8.5-2.267c0-0.692-1.167-1.311-3-1.727"/>
</g>
<path style="fill-rule:evenodd;clip-rule:evenodd;fill:none;stroke:#0073AE;stroke-width:2;stroke-miterlimit:10;" d="
	M37.773,129.64l-0.054,0.007l-0.005,0.003h-1.928v0.022h-0.81v0.016h-2.189v-0.016H21.34v0.016h-1.747v-0.016h-2.056v-0.07
	c-3.223-0.479-5.638-3.309-5.638-6.59c0-3.655,2.965-6.627,6.61-6.627c0.181,0,0.365,0.008,0.547,0.023
	c1.35-3.052,4.371-5.051,7.751-5.051c2.709,0,5.233,1.302,6.823,3.457c0.314-0.09,0.643-0.143,0.987-0.143
	c1.761,0,3.229,1.257,3.561,2.926c2.814,0.526,4.95,2.999,4.95,5.966C43.128,126.639,40.825,129.284,37.773,129.64z"/>
<g>
	<g>
		<path style="fill:#0073AE;" d="M133.121,151.015c0.419,0,0.822,0.165,1.077,0.482c0.447,0.555,0.815,1.008,0.815,1.008
			l-10.986,9.49l10.986,9.489c0,0-0.368,0.453-0.815,1.008c-0.255,0.317-0.658,0.482-1.077,0.482c-0.314,0-0.637-0.093-0.914-0.284
			l-10.853-8.523l-2.045,1.662c0.435,1.491-0.013,3.233-1.247,4.236c-0.705,0.574-1.567,0.878-2.463,0.878
			c-0.138,0-0.276-0.007-0.415-0.022c-1.043-0.11-1.98-0.622-2.639-1.44c-0.564-0.698-0.875-1.577-0.875-2.475
			c0-1.193,0.529-2.309,1.454-3.061c0.706-0.572,1.566-0.878,2.46-0.878c0.139,0,0.278,0.007,0.418,0.022
			c0.146,0.015,0.284,0.056,0.425,0.086l1.756-1.182l-1.756-1.183c-0.141,0.031-0.279,0.072-0.425,0.087
			c-0.14,0.015-0.279,0.022-0.417,0.022c-0.895,0-1.755-0.305-2.461-0.878c-0.925-0.753-1.454-1.867-1.454-3.061
			c0-0.898,0.311-1.778,0.875-2.476c0.659-0.816,1.597-1.328,2.639-1.439c0.139-0.015,0.278-0.022,0.415-0.022
			c0.896,0,1.758,0.305,2.463,0.879c1.234,1.003,1.682,2.743,1.247,4.236l2.045,1.663l10.853-8.524
			C132.485,151.108,132.807,151.015,133.121,151.015 M115.594,158.773c0.062,0,0.124-0.003,0.186-0.01
			c0.473-0.05,0.9-0.282,1.198-0.655c0.262-0.322,0.399-0.711,0.399-1.125c0-0.542-0.24-1.05-0.66-1.391
			c-0.321-0.261-0.713-0.4-1.119-0.4c-0.063,0-0.127,0.003-0.191,0.01c-0.473,0.051-0.9,0.282-1.198,0.655
			c-0.605,0.747-0.476,1.915,0.263,2.518C114.793,158.635,115.186,158.773,115.594,158.773 M121.3,163.067
			c0.591,0,1.07-0.481,1.07-1.074c0-0.593-0.479-1.073-1.07-1.073c-0.591,0-1.07,0.481-1.07,1.073
			C120.23,162.585,120.709,163.067,121.3,163.067 M115.598,168.795c0.406,0,0.797-0.138,1.116-0.399
			c0.422-0.341,0.662-0.849,0.662-1.391c0-0.414-0.137-0.803-0.397-1.125c-0.3-0.373-0.726-0.605-1.199-0.655
			c-0.062-0.006-0.123-0.009-0.185-0.009c-0.409,0-0.802,0.138-1.125,0.4c-0.738,0.6-0.866,1.769-0.262,2.516
			c0.298,0.372,0.725,0.604,1.198,0.654C115.471,168.792,115.535,168.795,115.598,168.795 M133.121,149.265L133.121,149.265
			c-0.685,0-1.345,0.205-1.907,0.593l-0.045,0.031l-0.043,0.034l-9.754,7.66l-0.167-0.136c0.138-1.861-0.611-3.72-2.041-4.881
			c-1.005-0.819-2.272-1.27-3.566-1.27c-0.198,0-0.398,0.01-0.598,0.031c-1.509,0.16-2.864,0.899-3.818,2.08
			c-0.815,1.008-1.263,2.278-1.263,3.576c0,1.723,0.765,3.333,2.1,4.419c0.28,0.227,0.579,0.425,0.893,0.594
			c-0.313,0.168-0.612,0.366-0.89,0.592c-1.337,1.086-2.102,2.696-2.102,4.42c0,1.298,0.449,2.567,1.264,3.575
			c0.951,1.18,2.307,1.92,3.815,2.079c0.202,0.021,0.402,0.031,0.6,0.031c1.295,0,2.562-0.452,3.568-1.272
			c1.428-1.16,2.178-3.018,2.039-4.879l0.167-0.135l9.754,7.66l0.043,0.034l0.045,0.031c0.563,0.388,1.222,0.593,1.907,0.593
			c0.969,0,1.858-0.413,2.439-1.133c0.445-0.552,0.81-1.002,0.811-1.003l1.071-1.318l-1.285-1.11l-9.453-8.165l9.453-8.165
			l1.285-1.11l-1.07-1.318l-0.811-1.003C134.98,149.679,134.091,149.265,133.121,149.265L133.121,149.265z M115.594,157.023
			c-0.007,0-0.012-0.001-0.023-0.009c0.005-0.002-0.001-0.051,0.007-0.071l0.048,0.041L115.594,157.023L115.594,157.023z
			 M115.598,167.045l-0.006,0c-0.022-0.019-0.016-0.067-0.004-0.086l0.038,0.046L115.598,167.045L115.598,167.045z"/>
	</g>
	<path style="fill:none;stroke:#0073AE;stroke-width:1.75;stroke-miterlimit:10;" d="M133.314,165.693c0,0,12.7-5.67,12.178-11.394"
		/>
	<path style="fill:none;stroke:#0073AE;stroke-width:1.75;stroke-miterlimit:10;" d="M122.207,180.135c0,0-0.257-6.995,5.883-10.638
		"/>
</g>
<g>
	<path style="fill:#0073AE;" d="M192.989,17.206c-0.163-0.172-0.382-0.268-0.615-0.269c-0.235,0-0.455,0.092-0.618,0.259
		l-0.14,0.142c-0.338,0.345-0.343,0.91-0.01,1.261c2.545,2.678,3.946,6.202,3.946,9.925c0,3.724-1.401,7.248-3.946,9.925
		c-0.334,0.351-0.33,0.916,0.01,1.261l0.141,0.143c0.33,0.337,0.914,0.325,1.232-0.011c2.903-3.049,4.501-7.068,4.501-11.317
		C197.491,24.276,195.892,20.256,192.989,17.206z"/>
	<path style="fill:#0073AE;" d="M187.773,22.384c-0.234,0-0.455,0.092-0.618,0.26l-0.069,0.07c-0.336,0.345-0.34,0.909-0.007,1.259
		c1.167,1.228,1.81,2.844,1.81,4.551s-0.643,3.323-1.81,4.551c-0.332,0.349-0.328,0.913,0.008,1.259l0.068,0.069
		c0.33,0.339,0.909,0.333,1.236-0.008c1.505-1.582,2.335-3.668,2.335-5.871c0-2.204-0.83-4.289-2.335-5.871
		C188.227,22.481,188.007,22.385,187.773,22.384z"/>
	<path style="fill:#0073AE;" d="M171.411,17.337l-0.139-0.141c-0.165-0.167-0.382-0.259-0.612-0.259
		c-0.241,0.001-0.456,0.094-0.621,0.269c-2.903,3.049-4.501,7.068-4.501,11.317c0,4.25,1.599,8.27,4.501,11.316
		c0.326,0.344,0.91,0.342,1.232,0.012l0.141-0.144c0.339-0.345,0.344-0.911,0.011-1.261c-2.545-2.677-3.947-6.201-3.947-9.924
		c0-3.722,1.401-7.246,3.946-9.925C171.755,18.248,171.75,17.683,171.411,17.337z"/>
	<path style="fill:#0073AE;" d="M175.939,22.713l-0.068-0.069c-0.163-0.165-0.386-0.26-0.612-0.26
		c-0.24,0.001-0.456,0.095-0.622,0.269c-1.505,1.581-2.334,3.666-2.334,5.871c0,2.206,0.829,4.291,2.334,5.871
		c0.326,0.343,0.912,0.34,1.231,0.012l0.071-0.072c0.338-0.345,0.342-0.91,0.009-1.26c-1.167-1.228-1.81-2.844-1.81-4.551
		c0-1.706,0.643-3.322,1.81-4.55C176.282,23.623,176.277,23.057,175.939,22.713z"/>
	<circle style="fill:#0073AE;" cx="181.514" cy="28.524" r="2.35"/>
</g>
</svg>
