<svg xmlns="http://www.w3.org/2000/svg" xmlns:xlink="http://www.w3.org/1999/xlink" viewBox="0 0 737.527 188.964"><g fill="none" stroke="#0073ae" stroke-width="3" stroke-linecap="round" stroke-linejoin="round" opacity=".3"><path stroke-dasharray="0,8" d="M234.264 51.482v4"/><path stroke-dasharray="0,6.75" d="M241.014 59.482h16.875"/></g><g fill="none" stroke="#0073ae" stroke-width="3" stroke-linecap="round" stroke-linejoin="round" opacity=".3"><path stroke-dasharray="0,7" d="M66.264 70.482h101.5"/><path stroke-dasharray="0,8.5" d="M171.264 78.982v4.25"/><path stroke-dasharray="0,6.7692" d="M178.033 87.482h77.846"/></g><g fill="none" stroke="#0073ae" stroke-width="3" stroke-linecap="round" stroke-linejoin="round" opacity=".3"><path stroke-dasharray="0,6.6667" d="M102.93 124.482h10"/><path stroke-dasharray="0,6.25" d="M116.264 118.232v-15.625"/><path stroke-dasharray="0,7.15" d="M123.414 99.482h132.275"/></g><g fill="none" stroke="#0073ae" stroke-width="3" stroke-linecap="round" stroke-linejoin="round" opacity=".3"><path stroke-dasharray="0,6.6667" d="M184.93 153.482h30"/><path stroke-dasharray="0,7.2" d="M218.264 146.282v-25.2"/><path stroke-dasharray="0,6.8333" d="M225.097 117.482h30.75"/></g><g fill="none" stroke="#0073ae" stroke-width="3" stroke-linecap="round" stroke-linejoin="round" opacity=".3"><path stroke-dasharray="0,7.6" d="M547.664 33.482h-26.6"/><path stroke-dasharray="0,7.2" d="M517.264 40.682v25.2"/><path stroke-dasharray="0,6.8333" d="M510.43 69.482h-30.75"/></g><g fill="none" stroke="#0073ae" stroke-width="3" stroke-linecap="round" stroke-linejoin="round" opacity=".3"><path stroke-dasharray="0,7.5" d="M623.764 61.482h-3.75"/><path stroke-dasharray="0,7" d="M616.264 68.482v17.5m-7 3.5h-129.5"/></g><g fill="none" stroke="#0073ae" stroke-width="3" stroke-linecap="round" stroke-linejoin="round" opacity=".3"><path stroke-dasharray="0,6.8333" d="M670.43 115.482H557.68"/><path stroke-dasharray="0,7.5" d="M554.264 107.982v-3.75"/><path stroke-dasharray="0,7.0909" d="M547.173 100.482h-67.364"/></g><g fill="none" stroke="#0073ae" stroke-width="3" stroke-linecap="round" stroke-linejoin="round" opacity=".3"><path stroke-dasharray="0,7" d="M552.264 154.482h-38.5"/><path stroke-dasharray="0,7.6" d="M510.264 146.882v-26.6"/><path stroke-dasharray="0,6.8" d="M503.464 116.482h-23.8"/></g><circle cx="585.264" cy="34.482" r="24.5" opacity=".2" fill="none" stroke="#0073ae" stroke-width="2" stroke-linecap="round" stroke-linejoin="round" stroke-miterlimit="10"/><circle cx="198.264" cy="43.482" r="24.5" opacity=".2" fill="none" stroke="#0073ae" stroke-width="2" stroke-linecap="round" stroke-linejoin="round" stroke-miterlimit="10"/><circle cx="30.264" cy="70.482" r="24.5" opacity=".2" fill="none" stroke="#0073ae" stroke-width="2" stroke-linecap="round" stroke-linejoin="round" stroke-miterlimit="10"/><circle cx="68.264" cy="124.482" r="24.5" opacity=".2" fill="none" stroke="#0073ae" stroke-width="2" stroke-linecap="round" stroke-linejoin="round" stroke-miterlimit="10"/><circle cx="147.264" cy="154.482" r="24.5" opacity=".2" fill="none" stroke="#0073ae" stroke-width="2" stroke-linecap="round" stroke-linejoin="round" stroke-miterlimit="10"/><circle cx="661.264" cy="61.482" r="24.5" opacity=".2" fill="none" stroke="#0073ae" stroke-width="2" stroke-linecap="round" stroke-linejoin="round" stroke-miterlimit="10"/><circle cx="707.264" cy="115.482" r="24.5" opacity=".2" fill="none" stroke="#0073ae" stroke-width="2" stroke-linecap="round" stroke-linejoin="round" stroke-miterlimit="10"/><circle cx="588.264" cy="154.482" r="24.5" opacity=".2" fill="none" stroke="#0073ae" stroke-width="2" stroke-linecap="round" stroke-linejoin="round" stroke-miterlimit="10"/><path d="M461.764 170.499c0 3.327-2.728 6.05-6.06 6.05h-172.88c-3.333 0-6.06-2.724-6.06-6.05V41.032c0-3.328 2.727-6.051 6.06-6.051h172.88c3.332 0 6.06 2.723 6.06 6.051v129.467" fill="#fff" stroke="#0073ae" stroke-width="2" stroke-miterlimit="10"/><path fill="#ffdbb2" d="M454.764 157.982h-171V42.17h171v115.812"/><path opacity=".5" fill="#f80" d="M454.764 44.982h-171V42.17h171v2.812m-21 113h-129v-5.833c0-.644.522-1.167 1.167-1.167h126.667c.644 0 1.167.522 1.167 1.167v5.833"/><circle cx="369.264" cy="38.739" r="1.544" fill="#0073ae"/><path d="M393.671 164.982c-1.193 2.924-4.068 5-7.408 5h-35c-3.34 0-6.214-2.076-7.408-5h-92.092v3.717a8.283 8.283 0 0 0 8.283 8.283h217.435a8.283 8.283 0 0 0 8.283-8.283v-3.717h-92.093z" fill="#b2d5e6" stroke="#0073ae" stroke-width="2" stroke-linecap="round" stroke-linejoin="round" stroke-miterlimit="10"/><path fill="none" stroke="#ffdbb2" stroke-width="2" stroke-miterlimit="10" d="M424.764 148.982v9"/><path d="M395.18 137.982h-52.833a1.588 1.588 0 0 1-1.583-1.583V62.565c0-.871.712-1.583 1.583-1.583h52.833c.871 0 1.583.712 1.583 1.583v73.833a1.587 1.587 0 0 1-1.583 1.584z" fill="#fff"/><circle cx="368.764" cy="93.982" r="18" fill="#ffdbb2"/><defs><circle id="a" cx="368.764" cy="93.982" r="18"/></defs><clipPath id="b"><use xlink:href="#a" overflow="visible"/></clipPath><g clip-path="url(#b)"><path d="M382.352 107.388l-1.317-4.671c-.136-.488-.626-1.06-1.086-1.271l-7.493-3.287-.01-.004v-1.37c1.13-1.402 1.842-3.439 1.842-5.708v-1.825c0-3.223-2.473-5.835-5.524-5.835s-5.524 2.612-5.524 5.835v1.825c0 2.268.712 4.307 1.842 5.709v1.369l-.01.004-7.493 3.287c-.461.211-.95.783-1.086 1.271l-1.318 4.671c-.136.488.165.887.672.887l12.917 6.626 12.917-6.626c.507 0 .808-.399.671-.887z" fill="#fff" stroke="#0073ae" stroke-width="2" stroke-linecap="round" stroke-linejoin="round" stroke-miterlimit="10"/></g><circle cx="368.764" cy="93.982" r="18" fill="none" stroke="#0073ae" stroke-width="2" stroke-linecap="round" stroke-linejoin="round" stroke-miterlimit="10"/><path d="M363.264 132.982h-12a3.51 3.51 0 0 1-3.5-3.5 3.51 3.51 0 0 1 3.5-3.5h12a3.51 3.51 0 0 1 3.5 3.5 3.51 3.51 0 0 1-3.5 3.5z" fill="#ffdbb2"/><path d="M386.264 132.982h-12a3.51 3.51 0 0 1-3.5-3.5 3.51 3.51 0 0 1 3.5-3.5h12a3.51 3.51 0 0 1 3.5 3.5 3.51 3.51 0 0 1-3.5 3.5z" fill="#b2d5e6"/><path d="M694.967 122.113l11.064-9.637c-.717-2.965.226-6.227 2.683-8.404 2.794-2.437 6.721-2.701 9.816-1.013l-6.052 5.472 3.741 4.276 6.049-5.507c1.325 3.262.494 7.089-2.302 9.528a8.423 8.423 0 0 1-8.684 1.536l-11.069 9.639c-1.659 1.428-4.152 1.277-5.585-.337-1.435-1.613-1.286-4.125.339-5.553zm-119.203 30.869v-1c0-6.6 5.4-12 12-12h1c6.6 0 12 5.4 12 12v1m0 10c-1.65 0-3-1.35-3-3v-4c0-1.65 1.35-3 3-3s3 1.35 3 3v4c0 1.65-1.35 3-3 3zm-25 0c-1.65 0-3-1.35-3-3v-4c0-1.65 1.35-3 3-3s3 1.35 3 3v4c0 1.65-1.35 3-3 3zm25 0s0 7-13 7" fill="none" stroke="#0073ae" stroke-width="2" stroke-linecap="round" stroke-linejoin="round" stroke-miterlimit="10"/><path d="M588.264 165.982a1.5 1.5 0 1 1-.001 3.001 1.5 1.5 0 0 1 .001-3.001m0-1.75c-1.792 0-3.25 1.458-3.25 3.25s1.458 3.25 3.25 3.25 3.25-1.458 3.25-3.25-1.458-3.25-3.25-3.25z" fill="#0073ae"/><path d="M577.764 145.982l.785.738c.624.587 1.596.487 2.138-.178 1.779-2.184 4.338-3.56 7.173-3.56h.81c2.786 0 5.306 1.33 7.081 3.45.574.686 1.647.638 2.205-.061l.809-1.014m62.932-96.874c-5.297 0-9.59 4.179-9.59 9.332 0 6.296 4.576 6.865 5.23 10.379 0 .988.78 1.787 1.744 1.787h5.232c.964 0 1.744-.799 1.744-1.787.639-3.594 5.23-3.968 5.23-10.379.001-5.153-4.293-9.332-9.59-9.332zm-2.933 24.499h6" fill="none" stroke="#0073ae" stroke-width="2" stroke-linecap="round" stroke-linejoin="round" stroke-miterlimit="10"/><path fill="none" stroke="#0073ae" stroke-width="2" stroke-linejoin="round" stroke-miterlimit="10" d="M661.764 60.982v9"/><path fill="none" stroke="#0073ae" stroke-width="2" stroke-linecap="round" stroke-linejoin="round" stroke-miterlimit="10" d="M658.764 75.982h6m-4 2h2"/><path d="M661.764 55.982a2 2 0 1 1 .001 3.999 2 2 0 0 1-.001-3.999m0-2c-2.206 0-4 1.794-4 4s1.794 4 4 4 4-1.794 4-4-1.795-4-4-4z" fill="#0073ae"/><path d="M585.764 19.982c8.284 0 15 6.716 15 15s-6.716 15-15 15c-8.284 0-15-6.716-15-15 0-2.677.701-5.19 1.93-7.366" fill="none" stroke="#0073ae" stroke-width="2" stroke-linecap="round" stroke-linejoin="round" stroke-miterlimit="10"/><path fill="none" stroke="#0073ae" stroke-width="2" stroke-linejoin="round" stroke-miterlimit="10" d="M569.046 26.792l5.022-1.091 1.091 5.022"/><path d="M585.264 33.982a1.5 1.5 0 1 1-.001 3.001 1.5 1.5 0 0 1 .001-3.001m0-1.75c-1.792 0-3.25 1.458-3.25 3.25s1.458 3.25 3.25 3.25 3.25-1.458 3.25-3.25-1.458-3.25-3.25-3.25z" fill="#0073ae"/><path fill="none" stroke="#0073ae" stroke-width="1.75" stroke-linecap="round" stroke-linejoin="round" stroke-miterlimit="10" d="M586.764 33.982l6-6m-6 9l4 4"/><path d="M70.662 130.1c.59.298 1.3.368 1.833-.171.533-.54 2.132-2.46 2.132-2.46s.52-.592 1.287-.105c.767.487 2.184 1.513 5.136 3.381.468.395.26 1.027.26 1.027s-2.068 3.368-5.305 5.013c-.728.461-2.419-.026-2.419-.026s-13.601-3.074-18.282-17.073c-.29-.627-.026-1.754-.026-1.754s.407-2.496 4.148-5.71c.605-.52 1.253-.026 1.253-.026s1.823 1.911 4.109 5.105c.25.35.052.947-.139 1.07-1.595 1.28-2.531 2.859-2.531 2.859s-.173.649.191 1.105c.365.454 3.256 5.134 8.353 7.765z" clip-rule="evenodd" fill="none" stroke="#0073ae" stroke-width="2" stroke-miterlimit="10"/><g fill="none" stroke="#0073ae" stroke-width="2" stroke-miterlimit="10"><path d="M139.014 168.982h-3.5a2.758 2.758 0 0 1-2.75-2.75v-23.5a2.757 2.757 0 0 1 2.75-2.75h3.5a2.758 2.758 0 0 1 2.75 2.75v23.5a2.759 2.759 0 0 1-2.75 2.75zm18.04-2h-15.29v-25h15.29a3.72 3.72 0 0 1 3.71 3.71v17.58c0 2.04-1.67 3.71-3.71 3.71z" clip-rule="evenodd"/><path d="M155.576 151.982h-8.625a1.188 1.188 0 0 1-1.188-1.188v-4.625c0-.656.532-1.188 1.188-1.188h8.625c.656 0 1.188.532 1.188 1.188v4.625c0 .656-.532 1.188-1.188 1.188z" clip-rule="evenodd"/><path d="M145.764 155.982h1m4 0h1m4 0h1m-11 3h1m4 0h1m4 0h1m-11 3h1m4 0h1m4 0h1" stroke-linecap="round" stroke-linejoin="round"/></g><path d="M35.43 84.982H25.097a3.343 3.343 0 0 1-3.333-3.333V59.315c0-1.833 1.5-3.333 3.333-3.333H35.43c1.833 0 3.333 1.5 3.333 3.333v22.333a3.342 3.342 0 0 1-3.333 3.334zm-6.666-25h3m-2 21h1m-8-4h15m173.361-22h-25.723a2.646 2.646 0 0 1-2.638-2.638V33.62a2.646 2.646 0 0 1 2.638-2.638h25.723a2.646 2.646 0 0 1 2.638 2.638v18.723a2.645 2.645 0 0 1-2.638 2.639zm-16.861 4h8m-18.5-9h29" fill="none" stroke="#0073ae" stroke-width="2" stroke-linecap="round" stroke-linejoin="round" stroke-miterlimit="10"/></svg>