<svg xmlns="http://www.w3.org/2000/svg" viewBox="0 0 737.527 188.964"><g fill="none" stroke="#0073ae" stroke-width="3" stroke-linecap="round" stroke-linejoin="round" opacity=".3"><path stroke-dasharray="0,6.6667" d="M218.18 28.524h10"/><path stroke-dasharray="0,8" d="M231.514 36.524v4"/><path stroke-dasharray="0,6.625" d="M238.139 44.524h43.062"/></g><g fill="none" stroke="#0073ae" stroke-width="3" stroke-linecap="round" stroke-linejoin="round" opacity=".3"><path stroke-dasharray="0,7.3333" d="M103.847 48.524h11"/><path stroke-dasharray="0,8" d="M118.514 56.524v12"/><path stroke-dasharray="0,6.9167" d="M125.43 72.524h155.625"/></g><g fill="none" stroke="#0073ae" stroke-width="3" stroke-linecap="round" stroke-linejoin="round" opacity=".3"><path stroke-dasharray="0,7.1176" d="M64.631 121.524h110.324"/><path stroke-dasharray="0,6.25" d="M178.514 115.274V99.649"/><path stroke-dasharray="0,7.0667" d="M185.58 96.524h95.4"/></g><g fill="none" stroke="#0073ae" stroke-width="3" stroke-linecap="round" stroke-linejoin="round" opacity=".3"><path stroke-dasharray="0,7.25" d="M163.764 162.524h47.125"/><path stroke-dasharray="0,7.4" d="M214.514 155.124v-25.9"/><path stroke-dasharray="0,6.9" d="M221.414 125.524h58.65"/></g><g fill="none" stroke="#0073ae" stroke-width="3" stroke-linecap="round" stroke-linejoin="round" opacity=".3"><path stroke-dasharray="0,6.6667" d="M581.847 28.524h-50"/><path stroke-dasharray="0,7.2" d="M528.514 35.724v25.2"/><path stroke-dasharray="0,6.6667" d="M521.847 64.524h-50"/></g><g fill="none" stroke="#0073ae" stroke-width="3" stroke-linecap="round" stroke-linejoin="round" opacity=".3"><path stroke-dasharray="0,7.0625" d="M672.451 68.524H570.045"/><path stroke-dasharray="0,8" d="M566.514 76.524v12"/><path stroke-dasharray="0,7" d="M559.514 92.524h-87.5"/></g><g fill="none" stroke="#0073ae" stroke-width="3" stroke-linecap="round" stroke-linejoin="round" opacity=".3"><path stroke-dasharray="0,7.6667" d="M641.847 144.524h-11.5"/><path stroke-dasharray="0,7" d="M626.514 137.524v-17.5"/><path stroke-dasharray="0,6.8696" d="M619.644 116.524H471.948"/></g><g fill="none" stroke="#0073ae" stroke-width="3" stroke-linecap="round" stroke-linejoin="round" opacity=".3"><path stroke-dasharray="0,6" d="M523.514 161.524h-9"/><path stroke-dasharray="0,8" d="M511.514 153.524v-4"/><path stroke-dasharray="0,7.3333" d="M504.18 145.524h-33"/></g><path d="M449.405 149.088H301.419a3.952 3.952 0 0 1-3.953-3.951V17.362a3.952 3.952 0 0 1 3.953-3.951h147.986a3.952 3.952 0 0 1 3.953 3.951v127.775a3.953 3.953 0 0 1-3.953 3.951z" fill="#b2d5e6" stroke="#0073ae" stroke-width="2" stroke-miterlimit="10"/><path d="M352.483 17.362v127.775a3.952 3.952 0 0 0 3.951 3.951h92.97a3.952 3.952 0 0 0 3.953-3.951V17.362a3.952 3.952 0 0 0-3.953-3.951h-92.97a3.952 3.952 0 0 0-3.951 3.951z" fill="#b2d5e6" stroke="#0073ae" stroke-width="2" stroke-miterlimit="10"/><path d="M453.339 17.077c0-1.967-1.769-3.562-3.953-3.562h-92.97c-2.181 0-3.951 1.595-3.951 3.562v39.114c-.009.175-.029.349-.029.525 0 12.648 22.587 22.901 50.449 22.901s50.449-10.253 50.449-22.901c0-.369-.023-.736-.061-1.101.02-.056.047-.109.066-.165V17.077z" fill="#fff" stroke="#0073ae" stroke-width="2" stroke-miterlimit="10"/><path d="M432.7 63.728h-59.625a3.01 3.01 0 0 1-3.011-3.011v-33.18a3.012 3.012 0 0 1 3.011-3.011H432.7a3.01 3.01 0 0 1 3.011 3.011v33.18a3.012 3.012 0 0 1-3.011 3.011z" fill="#ffdbb2" stroke="#f80" stroke-width="2" stroke-miterlimit="10"/><path d="M385.696 96.428h-5.162a3.203 3.203 0 0 1-3.203-3.203V88.06a3.203 3.203 0 0 1 3.203-3.203h5.162a3.203 3.203 0 0 1 3.203 3.203v5.165a3.203 3.203 0 0 1-3.203 3.203zm19.315 0h-5.162a3.203 3.203 0 0 1-3.203-3.203V88.06a3.203 3.203 0 0 1 3.203-3.203h5.162a3.203 3.203 0 0 1 3.203 3.203v5.165a3.203 3.203 0 0 1-3.203 3.203zm19.314 0h-5.162a3.203 3.203 0 0 1-3.203-3.203V88.06a3.203 3.203 0 0 1 3.203-3.203h5.162a3.203 3.203 0 0 1 3.203 3.203v5.165a3.203 3.203 0 0 1-3.203 3.203zm-38.629 19.314h-5.162a3.203 3.203 0 0 1-3.203-3.203v-5.165a3.203 3.203 0 0 1 3.203-3.203h5.162a3.203 3.203 0 0 1 3.203 3.203v5.165a3.203 3.203 0 0 1-3.203 3.203zm19.315 0h-5.162a3.203 3.203 0 0 1-3.203-3.203v-5.165a3.203 3.203 0 0 1 3.203-3.203h5.162a3.203 3.203 0 0 1 3.203 3.203v5.165a3.203 3.203 0 0 1-3.203 3.203zm19.314 0h-5.162a3.203 3.203 0 0 1-3.203-3.203v-5.165a3.203 3.203 0 0 1 3.203-3.203h5.162a3.203 3.203 0 0 1 3.203 3.203v5.165a3.203 3.203 0 0 1-3.203 3.203zm-38.629 19.315h-5.162a3.203 3.203 0 0 1-3.203-3.203v-5.165a3.203 3.203 0 0 1 3.203-3.203h5.162a3.203 3.203 0 0 1 3.203 3.203v5.165a3.203 3.203 0 0 1-3.203 3.203zm19.315 0h-5.162a3.203 3.203 0 0 1-3.203-3.203v-5.165a3.203 3.203 0 0 1 3.203-3.203h5.162a3.203 3.203 0 0 1 3.203 3.203v5.165a3.203 3.203 0 0 1-3.203 3.203zm19.314 0h-5.162a3.203 3.203 0 0 1-3.203-3.203v-5.165a3.203 3.203 0 0 1 3.203-3.203h5.162a3.203 3.203 0 0 1 3.203 3.203v5.165a3.203 3.203 0 0 1-3.203 3.203z" fill="#fff" stroke="#0073ae" stroke-width="2" stroke-miterlimit="10"/><path d="M310.661 141.175a17.79 17.79 0 0 0-.44 3.881c0 1.335.153 2.633.433 3.883h34.497c.28-1.25.433-2.548.433-3.883a17.79 17.79 0 0 0-.44-3.881c-1.497-14.091-5.851-64.326 2.464-107.898a21.432 21.432 0 0 0 1.845-8.703 21.44 21.44 0 0 0-3.116-11.167h-36.871a21.451 21.451 0 0 0-3.116 11.167c0 3.101.668 6.041 1.847 8.703 8.315 43.573 3.961 93.807 2.464 107.898zM453.33 16.911c-.045-.87-.434-1.657-1.05-2.255a3.939 3.939 0 0 0-2.875-1.245h-5.571v135.677h5.571a3.952 3.952 0 0 0 3.953-3.951V17.362a4.457 4.457 0 0 0-.028-.451z" opacity=".5" fill="#0073ae"/><path d="M344.032 33.278a21.432 21.432 0 0 0 1.845-8.703c0-11.902-9.647-21.551-21.551-21.551-11.903 0-21.552 9.649-21.552 21.551 0 3.101.668 6.041 1.847 8.703 8.315 43.572 3.961 93.806 2.464 107.898a17.79 17.79 0 0 0-.44 3.881c0 9.765 7.915 17.682 17.681 17.682 9.766 0 17.681-7.917 17.681-17.682a17.79 17.79 0 0 0-.44-3.881c-1.497-14.092-5.85-64.326 2.465-107.898z" fill="#fff" stroke="#0073ae" stroke-width="2" stroke-miterlimit="10"/><path fill="none" stroke="#fff" stroke-width="2" stroke-linecap="round" stroke-linejoin="round" stroke-miterlimit="10" d="M398.37 54.257l-2.356 2.767m23-27l-17.593 20.652m5.593-18.652l-13 15"/><circle cx="618.514" cy="28.524" r="24.5" opacity=".2" fill="none" stroke="#0073ae" stroke-width="2" stroke-linecap="round" stroke-linejoin="round" stroke-miterlimit="10"/><circle cx="181.514" cy="28.524" r="24.5" opacity=".2" fill="none" stroke="#0073ae" stroke-width="2" stroke-linecap="round" stroke-linejoin="round" stroke-miterlimit="10"/><circle cx="66.514" cy="48.524" r="24.5" opacity=".2" fill="none" stroke="#0073ae" stroke-width="2" stroke-linecap="round" stroke-linejoin="round" stroke-miterlimit="10"/><circle cx="27.514" cy="121.524" r="24.5" opacity=".2" fill="none" stroke="#0073ae" stroke-width="2" stroke-linecap="round" stroke-linejoin="round" stroke-miterlimit="10"/><circle cx="127.514" cy="162.524" r="24.5" opacity=".2" fill="none" stroke="#0073ae" stroke-width="2" stroke-linecap="round" stroke-linejoin="round" stroke-miterlimit="10"/><circle cx="708.514" cy="67.524" r="24.5" opacity=".2" fill="none" stroke="#0073ae" stroke-width="2" stroke-linecap="round" stroke-linejoin="round" stroke-miterlimit="10"/><circle cx="678.514" cy="145.524" r="24.5" opacity=".2" fill="none" stroke="#0073ae" stroke-width="2" stroke-linecap="round" stroke-linejoin="round" stroke-miterlimit="10"/><circle cx="558.514" cy="161.524" r="24.5" opacity=".2" fill="none" stroke="#0073ae" stroke-width="2" stroke-linecap="round" stroke-linejoin="round" stroke-miterlimit="10"/><path d="M618.514 12.613c-8.773 0-15.91 7.137-15.91 15.91s7.137 15.91 15.91 15.91 15.91-7.137 15.91-15.91-7.137-15.91-15.91-15.91zm14.459 12.318c-.572.097-.863.389-1.006.639-.173.302-.293.81.116 1.512.165.282.21.419.222.475-.035.031-.094.075-.142.111-.254.19-.703.527-.793 1.141-.095.064-.228.143-.282.176-.636.378-1.958 1.164-1.603 3.011.3 1.559.017 2.593-2.248 5.638-.692.93-1.327 1.276-1.692 1.29a.517.517 0 0 1-.422-.19c-.434-.498-.578-1.625-.387-3.016.669-4.857-1.508-6.177-1.757-6.311a.93.93 0 0 0-.843-.013c-.009.004-.881.426-1.859.426-1.282 0-2.099-.752-2.498-2.3-.543-2.104.482-2.864 1.475-3.6.6-.445 1.221-.906 1.287-1.679.04-.478-.153-.944-.575-1.386-.268-.28-.39-.535-.363-.757.036-.291.298-.594.562-.808 1.119-.114 2.49-.426 2.992-1.253.235-.387.265-.855.081-1.283l-.007-.018.207-.063.285-.087a3.164 3.164 0 0 0 1.703-1.258 14.964 14.964 0 0 1 7.547 9.603zm-14.459-11.307c.442 0 .878.023 1.311.061a1.395 1.395 0 0 1-.032.154c-.04.133-.238.262-.514.339-.104.028-.209.05-.315.073-.279.06-.596.127-.894.294-.315.176-.546.427-.751.648a3.056 3.056 0 0 1-.399.387 1.264 1.264 0 0 1-1.196.148 2.069 2.069 0 0 1-.231-1.507l-.615-.146a14.818 14.818 0 0 1 3.636-.451zm-6.492 1.49c-.207.816-.024 1.737.562 2.358.215.227.453.397.684.56.116.083.233.165.343.255.378.308.76.832.699 1.377-.032.293-.775 1.155-1.132 1.569-.339.393-.606.703-.733.936-.057.106-.133.252-.637.002-.18-.088-.297-.188-.422-.294-.235-.199-.526-.447-1.106-.481-.561-.031-.978.321-1.305.605l-.125.108c-.578.485-1.314.755-2.094 1.04-.246.09-.491.18-.732.277-.787.315-1.411.698-1.874 1.143a14.968 14.968 0 0 1 7.872-9.455zm-8.408 13.41c0-.088.005-.175.007-.263.327.434.759.609 1.411.621.423.007 1.003.018 2.227 1.085 1.498 1.306 2.766 1.918 3.69 2.365 1.005.486 1.273.652 1.384 1.041.161.566.005.95-.212 1.483-.216.53-.46 1.127-.355 1.891l-.039.022c-.582.327-1.555.874-1.834 2.941-.038.283-.071.58-.098.888-3.741-2.712-6.181-7.112-6.181-12.074zm14.9 14.9c-2.837 0-5.492-.798-7.751-2.18.031-.493.073-.967.132-1.401.212-1.568.831-1.916 1.329-2.195.356-.2.663-.373.556-.961-.097-.533.076-.958.278-1.45.237-.581.505-1.24.248-2.142-.248-.867-.911-1.187-1.916-1.673-.874-.422-2.07-1-3.466-2.217-1.501-1.309-2.36-1.324-2.873-1.333-.495-.009-.7-.012-1.02-1.186a4.8 4.8 0 0 1-.169-.844l.019-.106.482.222c.291-.632.977-1.168 2.04-1.595.231-.093.467-.179.703-.265.827-.303 1.683-.616 2.396-1.215l.138-.118c.209-.182.426-.352.583-.36.243.015.316.077.512.243.15.128.338.287.629.43 1.24.612 1.792-.094 1.972-.426.075-.138.359-.468.61-.759.764-.886 1.309-1.557 1.371-2.117.089-.805-.309-1.654-1.064-2.271a6.431 6.431 0 0 0-.399-.296c-.199-.142-.388-.275-.533-.43-.499-.528-.51-1.463-.024-2.003l-.159-.143a14.76 14.76 0 0 1 1.337-.447 3.094 3.094 0 0 0 .485 2.222l.07.102.109.058c.323.173.685.257 1.047.257.477 0 .952-.147 1.339-.435.211-.157.377-.337.539-.512.168-.182.327-.354.5-.451.165-.092.383-.139.613-.188.125-.027.25-.054.372-.087.635-.175 1.066-.536 1.212-1.018.028-.091.047-.193.066-.294l.006-.035c1.287.202 2.518.571 3.675 1.081a2.14 2.14 0 0 1-1.079.737l-.28.085c-.55.166-.772.244-.915.413l-.702.831h.7c.023.061.049.128.081.202.056.13.05.251-.016.361-.221.364-1.171.679-2.365.785l-.139.012-.112.081c-.291.211-.978.786-1.076 1.583-.067.538.147 1.069.635 1.579.321.336.304.536.299.601-.026.303-.352.56-.884.953-1.021.757-2.563 1.901-1.851 4.664.652 2.527 2.25 3.057 3.476 3.057 1.052 0 1.989-.387 2.259-.51.256.175 1.736 1.37 1.2 5.26-.238 1.726-.016 3.082.625 3.818a1.5 1.5 0 0 0 1.158.537l.065-.001c.798-.031 1.672-.633 2.463-1.697 2.287-3.074 2.809-4.457 2.43-6.431-.205-1.064.389-1.514 1.127-1.952.425-.253.76-.453.76-.821 0-.236.153-.367.406-.557.584-.438.787-.87.185-1.902-.076-.129-.19-.365-.112-.5.055-.096.204-.136.338-.153.15.846.232 1.715.232 2.604-.002 8.215-6.686 14.899-14.902 14.899z" fill="#0073ae" stroke="#0073ae" stroke-width=".75" stroke-miterlimit="10"/><path d="M721.09 56.456a1.763 1.763 0 0 0-.427-.673c-.003-.004-.009-.005-.014-.009-.005-.006-.006-.01-.011-.015a1.843 1.843 0 0 0-.696-.409c-.884-.395-1.957-.257-2.684.449l-5.032 4.888-14.957-2.605-1.56 2.149 11.806 5.732-3.807 3.742-4.932-.086-1.136 1.101 4.182 3.343 3.474 4.03 1.134-1.103-.112-4.769 3.852-3.699 5.979 11.394 2.215-1.52-2.76-14.452 5.032-4.89a2.236 2.236 0 0 0 .454-2.598z" fill="none" stroke="#0073ae" stroke-width="2" stroke-linecap="round" stroke-linejoin="round" stroke-miterlimit="10"/><g clip-rule="evenodd" fill="none" stroke="#0073ae" stroke-width="2" stroke-linecap="round" stroke-linejoin="round" stroke-miterlimit="10"><path d="M569.014 171.024h-20v-12l10-6 10 6zm2 0h-24"/><path d="M545.014 157.357l14-8.667 14 8.667m-12 13.667h-4v-6.938c0-.587.476-1.063 1.062-1.063h1.875c.587 0 1.063.476 1.063 1.063v6.938z"/></g><path d="M687.982 156.024h-17.938a1.03 1.03 0 0 1-1.031-1.031v-18.885a3.083 3.083 0 0 1 3.083-3.083h13.833a3.083 3.083 0 0 1 3.083 3.083v18.885a1.029 1.029 0 0 1-1.03 1.031z" clip-rule="evenodd" fill="none" stroke="#0073ae" stroke-width="2" stroke-miterlimit="10"/><path fill="none" stroke="#0073ae" stroke-width="2" stroke-miterlimit="10" d="M671.014 148.024h16"/><path fill="none" stroke="#0073ae" stroke-width="2" stroke-linecap="round" stroke-linejoin="round" stroke-miterlimit="10" d="M672.014 152.024h3m8 0h3m6-8v-2.458c0-.851-.69-1.542-1.542-1.542h-1.458m-23 4v-2.458c0-.851.69-1.542 1.542-1.542h1.458"/><path d="M673.014 157.024v1h-1v-1h1m0-2h-1a2 2 0 0 0-2 2v1a2 2 0 0 0 2 2h1a2 2 0 0 0 2-2v-1a2 2 0 0 0-2-2zm13 2v1h-1v-1h1m0-2h-1a2 2 0 0 0-2 2v1a2 2 0 0 0 2 2h1a2 2 0 0 0 2-2v-1a2 2 0 0 0-2-2z" fill="#0073ae"/><path fill="none" stroke="#0073ae" stroke-width="1.75" stroke-linecap="round" stroke-linejoin="round" stroke-miterlimit="10" d="M685.014 137.024l-7 8m1-8l-5 6"/><g fill="none" stroke="#0073ae" stroke-linecap="round" stroke-linejoin="round" stroke-miterlimit="10"><path d="M66.514 33.024c-4.501 0-9.407 3.326-9.407 9.161 0 6.752 6.278 13.059 9.407 16.808 3.131-3.749 9.408-10.056 9.408-16.808-.001-5.781-5.015-9.161-9.408-9.161zm-.098 14.253c-2.386 0-4.32-2-4.32-4.466s1.934-4.464 4.32-4.464c2.385 0 4.319 1.999 4.319 4.464 0 2.466-1.934 4.466-4.319 4.466z" stroke-width="2"/><path d="M61.014 58.297c-1.833.416-3 1.034-3 1.727 0 1.252 3.806 2.267 8.5 2.267s8.5-1.015 8.5-2.267c0-.692-1.167-1.311-3-1.727" stroke-width="1.75"/></g><path d="M37.773 129.64l-.054.007-.005.003h-1.928v.022h-.81v.016h-2.189v-.016H21.34v.016h-1.747v-.016h-2.056v-.07c-3.223-.479-5.638-3.309-5.638-6.59 0-3.655 2.965-6.627 6.61-6.627.181 0 .365.008.547.023a8.471 8.471 0 0 1 7.751-5.051 8.487 8.487 0 0 1 6.823 3.457c.314-.09.643-.143.987-.143a3.635 3.635 0 0 1 3.561 2.926 6.077 6.077 0 0 1 4.95 5.966c0 3.076-2.303 5.721-5.355 6.077z" clip-rule="evenodd" fill="none" stroke="#0073ae" stroke-width="2" stroke-miterlimit="10"/><path d="M133.121 151.015c.419 0 .822.165 1.077.482.447.555.815 1.008.815 1.008l-10.986 9.49 10.986 9.489s-.368.453-.815 1.008c-.255.317-.658.482-1.077.482-.314 0-.637-.093-.914-.284l-10.853-8.523-2.045 1.662c.435 1.491-.013 3.233-1.247 4.236a3.882 3.882 0 0 1-2.878.856 3.891 3.891 0 0 1-2.639-1.44 3.95 3.95 0 0 1-.875-2.475c0-1.193.529-2.309 1.454-3.061a3.891 3.891 0 0 1 2.878-.856c.146.015.284.056.425.086l1.756-1.182-1.756-1.183c-.141.031-.279.072-.425.087a3.886 3.886 0 0 1-2.878-.856 3.928 3.928 0 0 1-1.454-3.061c0-.898.311-1.778.875-2.476a3.904 3.904 0 0 1 3.054-1.461c.896 0 1.758.305 2.463.879 1.234 1.003 1.682 2.743 1.247 4.236l2.045 1.663 10.853-8.524c.278-.189.6-.282.914-.282m-17.527 7.758a1.76 1.76 0 0 0 1.384-.665c.262-.322.399-.711.399-1.125a1.784 1.784 0 0 0-1.97-1.781c-.473.051-.9.282-1.198.655-.605.747-.476 1.915.263 2.518.321.26.714.398 1.122.398m5.706 4.294c.591 0 1.07-.481 1.07-1.074a1.071 1.071 0 1 0-2.14 0c0 .592.479 1.074 1.07 1.074m-5.702 5.728c.406 0 .797-.138 1.116-.399a1.78 1.78 0 0 0 .662-1.391c0-.414-.137-.803-.397-1.125a1.767 1.767 0 0 0-1.384-.664c-.409 0-.802.138-1.125.4-.738.6-.866 1.769-.262 2.516a1.763 1.763 0 0 0 1.39.663m17.523-19.53c-.685 0-1.345.205-1.907.593l-.045.031-.043.034-9.754 7.66-.167-.136c.138-1.861-.611-3.72-2.041-4.881a5.663 5.663 0 0 0-7.982.841 5.704 5.704 0 0 0-1.263 3.576 5.672 5.672 0 0 0 2.993 5.013 5.668 5.668 0 0 0-2.992 5.012c0 1.298.449 2.567 1.264 3.575a5.628 5.628 0 0 0 4.415 2.11 5.664 5.664 0 0 0 3.568-1.272c1.428-1.16 2.178-3.018 2.039-4.879l.167-.135 9.754 7.66.043.034.045.031a3.345 3.345 0 0 0 1.907.593c.969 0 1.858-.413 2.439-1.133.445-.552.81-1.002.811-1.003l1.071-1.318-1.285-1.11-9.453-8.165 9.453-8.165 1.285-1.11-1.07-1.318-.811-1.003c-.582-.721-1.471-1.135-2.441-1.135zm-17.527 7.758c-.007 0-.012-.001-.023-.009.005-.002-.001-.051.007-.071l.048.041-.032.039zm.004 10.022h-.006c-.022-.019-.016-.067-.004-.086l.038.046-.028.04z" fill="#0073ae"/><path d="M133.314 165.693s12.7-5.67 12.178-11.394m-23.285 25.836s-.257-6.995 5.883-10.638" fill="none" stroke="#0073ae" stroke-width="1.75" stroke-miterlimit="10"/><g fill="#0073ae"><path d="M192.989 17.206a.848.848 0 0 0-.615-.269.857.857 0 0 0-.618.259l-.14.142a.916.916 0 0 0-.01 1.261 14.338 14.338 0 0 1 3.946 9.925c0 3.724-1.401 7.248-3.946 9.925a.913.913 0 0 0 .01 1.261l.141.143a.878.878 0 0 0 1.232-.011c2.903-3.049 4.501-7.068 4.501-11.317.001-4.249-1.598-8.269-4.501-11.319zm-5.216 5.178a.856.856 0 0 0-.618.26l-.069.07a.915.915 0 0 0-.007 1.259c1.167 1.228 1.81 2.844 1.81 4.551s-.643 3.323-1.81 4.551a.916.916 0 0 0 .008 1.259l.068.069a.876.876 0 0 0 1.236-.008 8.48 8.48 0 0 0 2.335-5.871c0-2.204-.83-4.289-2.335-5.871a.854.854 0 0 0-.618-.269zm-16.362-5.047l-.139-.141a.855.855 0 0 0-1.233.01c-2.903 3.049-4.501 7.068-4.501 11.317 0 4.25 1.599 8.27 4.501 11.316a.877.877 0 0 0 1.232.012l.141-.144a.915.915 0 0 0 .011-1.261 14.335 14.335 0 0 1-3.947-9.924c0-3.722 1.401-7.246 3.946-9.925a.914.914 0 0 0-.011-1.26zm4.528 5.376l-.068-.069a.849.849 0 0 0-1.234.009 8.473 8.473 0 0 0-2.334 5.871 8.47 8.47 0 0 0 2.334 5.871c.326.343.912.34 1.231.012l.071-.072a.915.915 0 0 0 .009-1.26 6.575 6.575 0 0 1-1.81-4.551c0-1.706.643-3.322 1.81-4.55a.915.915 0 0 0-.009-1.261z"/><circle cx="181.514" cy="28.524" r="2.35"/></g></svg>