<svg height="512pt" viewBox="0 -66 512 512" width="512pt" xmlns="http://www.w3.org/2000/svg"><path d="m452.511719 307.320312c0-11.34375 0-222.8125 0-234.242187 0-8.558594-6.9375-15.484375-15.484375-15.484375h-362.054688c-8.546875 0-15.484375 6.925781-15.484375 15.484375v234.242187c0 8.554688 6.9375 15.480469 15.484375 15.480469h362.054688c8.546875 0 15.484375-6.925781 15.484375-15.480469zm-218.570313-15.484374c-11.3125 0-138.628906 0-143.484375 0v-24.816407l59.332031-59.324219c73.839844 73.835938 13.109376 13.09375 84.152344 84.140626zm187.601563 0h-143.8125l-51.996094-51.996094 88.402344-87.835938 107.40625 102.773438zm-96.898438-172.644532c-6.070312-5.804687-15.667969-5.710937-21.625.203125l-99.179687 98.550781-43.097656-43.097656c-6.058594-6.058594-15.855469-6.046875-21.902344 0l-48.382813 48.382813v-134.667969h331.085938v123.355469zm0 0"/><path d="m205.933594 98.535156c-22.84375 0-41.433594 18.578125-41.433594 41.421875 0 22.855469 18.589844 41.4375 41.433594 41.4375 22.847656 0 41.4375-18.582031 41.4375-41.4375 0-22.84375-18.589844-41.421875-41.4375-41.421875zm0 51.890625c-5.769532 0-10.464844-4.695312-10.464844-10.46875 0-5.757812 4.695312-10.457031 10.464844-10.457031 5.773437 0 10.46875 4.699219 10.46875 10.457031 0 5.773438-4.695313 10.46875-10.46875 10.46875zm0 0"/><path d="m92.0625 349.429688h-61.09375v-52.429688c0-20.460938-30.96875-20.480469-30.96875 0v67.914062c0 8.550782 6.933594 15.484376 15.484375 15.484376h76.578125c20.460938 0 20.484375-30.96875 0-30.96875zm0 0"/><path d="m496.515625 0h-76.578125c-20.460938 0-20.484375 30.96875 0 30.96875h61.09375v52.425781c0 20.460938 30.96875 20.484375 30.96875 0v-67.910156c0-8.550781-6.933594-15.484375-15.484375-15.484375zm0 0"/><path d="m481.03125 297v52.429688h-61.09375c-8.550781 0-15.484375 6.933593-15.484375 15.484374 0 8.550782 6.933594 15.484376 15.484375 15.484376h76.578125c8.550781 0 15.484375-6.933594 15.484375-15.484376v-67.914062c0-20.460938-30.96875-20.480469-30.96875 0zm0 0"/><path d="m30.96875 83.394531v-52.425781h61.09375c20.460938 0 20.484375-30.96875 0-30.96875h-76.578125c-8.550781 0-15.484375 6.933594-15.484375 15.484375v67.910156c0 20.460938 30.96875 20.484375 30.96875 0zm0 0"/></svg>