<svg height="512pt" viewBox="-5 0 512 512" width="512pt" xmlns="http://www.w3.org/2000/svg"><path d="m486.398438 0c-13.136719 0-460.929688 0-471.039063 0-8.476563 0-15.359375 6.882812-15.359375 15.359375v481.28125c0 8.476563 6.882812 15.359375 15.359375 15.359375h471.039063c8.480468 0 15.363281-6.882812 15.363281-15.359375v-481.28125c0-8.476563-6.882813-15.359375-15.363281-15.359375zm-15.359376 481.28125h-82.941406v-60.722656c0-8.480469-6.882812-15.363282-15.363281-15.363282h-245.757813c-8.480468 0-15.359374 6.882813-15.359374 15.363282v60.722656h-80.898438v-450.5625h80.898438v60.722656c0 8.480469 6.878906 15.363282 15.359374 15.363282h245.757813c8.480469 0 15.363281-6.882813 15.363281-15.363282v-60.722656h82.941406zm-328.703124-45.363281h215.039062v45.363281h-215.039062zm215.039062-359.835938h-215.039062v-45.363281h215.039062zm0 0"/><path d="m372.734375 130.355469h-245.757813c-8.480468 0-15.359374 6.871093-15.359374 15.359375v220.570312c0 8.488282 6.878906 15.359375 15.359374 15.359375h245.757813c8.480469 0 15.363281-6.871093 15.363281-15.359375v-220.570312c0-8.488282-6.882812-15.359375-15.363281-15.359375zm-15.359375 220.570312h-215.039062v-189.851562h215.039062zm0 0"/><path d="m73.511719 50.320312h-16.167969c-20.292969 0-20.324219 30.71875 0 30.71875h16.167969c20.289062 0 20.335937-30.71875 0-30.71875zm0 0"/><path d="m428.246094 81.039062h16.167968c20.292969 0 20.328126-30.71875 0-30.71875h-16.167968c-20.359375 0-20.269532 30.71875 0 30.71875zm0 0"/><path d="m73.511719 145.480469h-16.167969c-20.292969 0-20.324219 30.71875 0 30.71875h16.167969c20.289062 0 20.335937-30.71875 0-30.71875zm0 0"/><path d="m428.246094 176.199219h16.167968c20.292969 0 20.328126-30.71875 0-30.71875h-16.167968c-20.359375 0-20.269532 30.71875 0 30.71875zm0 0"/><path d="m73.511719 240.640625h-16.167969c-20.289062 0-20.324219 30.71875 0 30.71875h16.167969c20.320312 0 20.296875-30.71875 0-30.71875zm0 0"/><path d="m428.246094 271.359375h16.167968c20.292969 0 20.328126-30.71875 0-30.71875h-16.167968c-20.320313 0-20.292969 30.71875 0 30.71875zm0 0"/><path d="m73.511719 335.800781h-16.167969c-20.289062 0-20.324219 30.71875 0 30.71875h16.167969c20.363281 0 20.273437-30.71875 0-30.71875zm0 0"/><path d="m428.246094 366.519531h16.167968c20.296876 0 20.328126-30.71875 0-30.71875h-16.167968c-20.285156 0-20.335938 30.71875 0 30.71875zm0 0"/><path d="m73.511719 430.960938h-16.167969c-20.289062 0-20.324219 30.71875 0 30.71875h16.167969c20.363281 0 20.273437-30.71875 0-30.71875zm0 0"/><path d="m428.246094 461.679688h16.167968c20.296876 0 20.328126-30.71875 0-30.71875h-16.167968c-20.285156 0-20.335938 30.71875 0 30.71875zm0 0"/></svg>