<svg xmlns="http://www.w3.org/2000/svg" width="39.818" height="39.818"><path d="M7.843 11.369a.493.493 0 0 0 .225.065c8.604.049 13.42 2.377 15.944 4.321a.51.51 0 0 0 .574.027.496.496 0 0 0 .219-.53c-.441-2.005-1.213-4.116-2.234-6.292a9.472 9.472 0 0 0-2.659 2.386c-.388-.529-4.592-6.013-10.495-1.746a5.727 5.727 0 0 0-1.574 1.769z"/><path d="M25.909 21.589a.505.505 0 0 0 .264.513c.14.069.3.071.438.012a.48.48 0 0 0 .133-.088c2.207-2.018 4.27-4.708 6.158-7.949-.279-1.89-1.139-3.493-2.498-4.477-2.875-2.079-5.346-1.838-7.168-.987 2.791 5.921 3.037 10.259 2.673 12.976z"/><path d="M32.997 15.365c-4.207 6.841-8.463 9.673-11.203 10.779a.516.516 0 0 0-.312.481.497.497 0 0 0 .351.457c1.203.381 2.521.658 3.892.885 1.94-1.786 3.959-3.934 5.35-6.166 1.331-2.142 1.937-4.401 1.922-6.436zm-17.766 9.482a.504.504 0 0 0-.221.531c.335 1.516.853 3.088 1.517 4.701a53.814 53.814 0 0 0 3.352 2.539s.013.034.031.02c.02.015.031-.02.031-.02a56.699 56.699 0 0 0 5.077-4.011c-4.54-.821-7.441-2.373-9.211-3.733a.508.508 0 0 0-.576-.027zm-1.32-5.805a.51.51 0 0 0-.267-.512.505.505 0 0 0-.569.074c-1.279 1.17-2.512 2.569-3.688 4.159 1.677 2.371 3.96 4.6 5.977 6.338-1.633-4.446-1.753-7.807-1.453-10.059z"/><path d="M7.442 12.175c-1.095 2.616-.791 6.265 1.304 9.626.066.107.146.215.215.324 3.479-4.605 6.812-6.701 9.067-7.642a.514.514 0 0 0 .308-.483.5.5 0 0 0-.351-.456c-2.999-.947-6.554-1.396-10.543-1.369zm-6.099.504c.74 0 1.342-.603 1.342-1.344V3.877h7.458c.742 0 1.344-.602 1.344-1.342 0-.74-.603-1.343-1.344-1.343H2.487A2.487 2.487 0 0 0 .003 3.675v7.657a1.341 1.341 0 0 0 1.34 1.347zm35.99-11.485h-7.658a1.344 1.344 0 0 0 0 2.685h7.457v7.458a1.345 1.345 0 0 0 2.687 0V3.68a2.492 2.492 0 0 0-2.486-2.486zm1.142 25.946c-.74 0-1.343.602-1.343 1.344v7.457h-7.457a1.343 1.343 0 0 0 0 2.686h7.656a2.485 2.485 0 0 0 2.483-2.483v-7.658a1.338 1.338 0 0 0-1.339-1.346zm-28.333 8.8H2.684v-7.457c0-.742-.602-1.344-1.342-1.344A1.344 1.344 0 0 0 0 28.483v7.656a2.486 2.486 0 0 0 2.483 2.484h7.657c.742 0 1.343-.604 1.343-1.345a1.337 1.337 0 0 0-1.341-1.338z"/></svg>