<svg height="512pt" viewBox="0 -66 512 512" width="512pt" xmlns="http://www.w3.org/2000/svg"><path d="M452.512 307.32V73.078c0-8.558-6.938-15.484-15.485-15.484H74.973c-8.547 0-15.485 6.926-15.485 15.484V307.32c0 8.555 6.938 15.48 15.485 15.48h362.054c8.547 0 15.485-6.925 15.485-15.48zm-218.57-15.484H90.456V267.02l59.332-59.325c73.84 73.836 13.11 13.094 84.152 84.14zm187.601 0H277.73l-51.996-51.996 88.403-87.836 107.406 102.773zM324.645 119.19c-6.07-5.804-15.668-5.71-21.625.204l-99.18 98.55-43.098-43.097c-6.058-6.059-15.855-6.047-21.902 0L90.457 223.23V88.563h331.086v123.355zm0 0"/><path d="M205.934 98.535c-22.844 0-41.434 18.578-41.434 41.422 0 22.856 18.59 41.438 41.434 41.438 22.847 0 41.437-18.583 41.437-41.438 0-22.844-18.59-41.422-41.437-41.422zm0 51.89c-5.77 0-10.465-4.695-10.465-10.468 0-5.758 4.695-10.457 10.465-10.457 5.773 0 10.468 4.7 10.468 10.457 0 5.773-4.695 10.469-10.468 10.469zM92.063 349.43H30.968V297C30.969 276.54 0 276.52 0 297v67.914c0 8.55 6.934 15.484 15.484 15.484h76.579c20.46 0 20.484-30.968 0-30.968zM496.516 0h-76.579c-20.46 0-20.484 30.969 0 30.969h61.094v52.426c0 20.46 30.969 20.484 30.969 0v-67.91C512 6.933 505.066 0 496.516 0zm-15.485 297v52.43h-61.094c-8.55 0-15.484 6.933-15.484 15.484 0 8.55 6.934 15.484 15.485 15.484h76.578c8.55 0 15.484-6.933 15.484-15.484V297c0-20.46-30.969-20.48-30.969 0zM30.969 83.395V30.969h61.093c20.461 0 20.485-30.969 0-30.969H15.484C6.934 0 0 6.934 0 15.484v67.91c0 20.461 30.969 20.485 30.969 0zm0 0"/></svg>