<svg xmlns="http://www.w3.org/2000/svg" width="512" height="512" viewBox="0 0 466 466"><g fill="#FFF"><path d="M370.001 26.35H18.5C8.282 26.35 0 34.633 0 44.85v289.477c0 10.218 8.282 18.5 18.5 18.5h262.662l-20.326-23.571h-48.548v-29.603h25.435l-.183-.224c-6.49-7.407-10.784-15.061-12.85-22.429H44.4V102.175h299.7V277h-40.213c6.104 6.485 12.491 13.053 17.853 18.368a199.432 199.432 0 0 1 13.159-11.314c16.925-13.288 33.388-21.414 48.932-24.151a71.672 71.672 0 0 1 4.672-.647V44.85c-.002-10.217-8.284-18.5-18.502-18.5zM129.038 299.653h47.175v29.601h-47.175v-29.601zm-83.251 0h47.176v29.601H45.787v-29.601zM92.963 79.521H45.787v-29.6h47.176v29.6zm83.25 0h-47.175v-29.6h47.175v29.6zm83.25 0h-47.175v-29.6h47.175v29.6zm83.25 0h-47.175v-29.6h47.175v29.6z"/><path d="M464.662 354.325c-4.595-24.766-20.357-47.662-29.344-59.11-12.191-15.53-27.666-21.767-45.99-18.538-13.086 2.305-27.307 9.429-42.271 21.177-10.572 8.303-18.558 16.611-22.088 20.479-8.874-7.644-33.651-33.175-45.816-47.571-6.109-7.229-21.865-22.604-33.621-11.991-12.654 12.301 5.882 32.396 6.362 32.979l74.362 91.024a5.616 5.616 0 0 1-1.021 1.055c-7.133 5.601-27.943-4.69-36.344-10.245-7.68-5.076-20.609-5.037-27.137.086-2.612 2.053-4.06 4.842-4.075 7.854-.021 4.338 2.815 8.82 8.422 13.313.063.051.177.149.339.289 8.286 7.1 30.764 24.782 60.445 35.668 19.027 6.979 37.564 9.854 55.104 8.551 21.754-1.621 42.023-9.693 60.246-24 19.546-15.354 27.092-35.884 22.427-61.02zM175.976 127.423a9.56 9.56 0 1 0-15.7 7.327v100.833a9.554 9.554 0 0 0 9.559 9.558 9.56 9.56 0 0 0 6.141-2.233l60.163-50.416a9.563 9.563 0 0 0 0-14.655l-60.163-50.414z"/></g></svg>