<svg height="512pt" viewBox="-5 0 512 512" width="512pt" xmlns="http://www.w3.org/2000/svg"><path d="M486.398 0H15.36C6.883 0 0 6.883 0 15.36v481.28C0 505.118 6.883 512 15.36 512h471.038c8.48 0 15.364-6.883 15.364-15.36V15.36c0-8.477-6.883-15.36-15.364-15.36zM471.04 481.281h-82.941V420.56c0-8.48-6.883-15.364-15.364-15.364H126.977c-8.48 0-15.36 6.883-15.36 15.364v60.722H30.72V30.72h80.898v60.72c0 8.48 6.88 15.364 15.36 15.364h245.757c8.48 0 15.364-6.883 15.364-15.364V30.72h82.941zm-328.703-45.363h215.039v45.363h-215.04zM357.375 76.082h-215.04V30.719h215.04zm0 0"/><path d="M372.734 130.355H126.977c-8.48 0-15.36 6.872-15.36 15.36v220.57c0 8.488 6.88 15.36 15.36 15.36h245.757c8.48 0 15.364-6.872 15.364-15.36v-220.57c0-8.488-6.883-15.36-15.364-15.36zm-15.359 220.57h-215.04v-189.85h215.04zM73.512 50.32H57.344c-20.293 0-20.324 30.72 0 30.72h16.168c20.289 0 20.336-30.72 0-30.72zm354.734 30.72h16.168c20.293 0 20.328-30.72 0-30.72h-16.168c-20.36 0-20.27 30.72 0 30.72zM73.512 145.48H57.344c-20.293 0-20.324 30.72 0 30.72h16.168c20.289 0 20.336-30.72 0-30.72zm354.734 30.72h16.168c20.293 0 20.328-30.72 0-30.72h-16.168c-20.36 0-20.27 30.72 0 30.72zM73.512 240.64H57.344c-20.29 0-20.324 30.72 0 30.72h16.168c20.32 0 20.297-30.72 0-30.72zm354.734 30.72h16.168c20.293 0 20.328-30.72 0-30.72h-16.168c-20.32 0-20.293 30.72 0 30.72zM73.512 335.8H57.344c-20.29 0-20.324 30.72 0 30.72h16.168c20.363 0 20.273-30.72 0-30.72zm354.734 30.72h16.168c20.297 0 20.328-30.72 0-30.72h-16.168c-20.285 0-20.336 30.72 0 30.72zM73.512 430.96H57.344c-20.29 0-20.324 30.72 0 30.72h16.168c20.363 0 20.273-30.72 0-30.72zm354.734 30.72h16.168c20.297 0 20.328-30.72 0-30.72h-16.168c-20.285 0-20.336 30.72 0 30.72zm0 0"/></svg>