<svg width="24" height="24" viewBox="0 0 24 24" fill="none" xmlns="http://www.w3.org/2000/svg">
    <path d="M12.0871 2C10.8171 2 9.68709 2.8 9.26709 4H3.08709V6H5.03709L2.08709 13C1.61709 15 3.08709 16 5.58709 16C8.08709 16 9.64709 15 9.08709 13L6.13709 6H9.25709C9.58709 6.85 10.2371 7.5 11.0871 7.83V19H2.08709V21H22.0871V19H13.0871V7.82C13.9371 7.5 14.5871 6.85 14.9071 6H18.0371L15.0871 13C14.6171 15 16.0871 16 18.5871 16C21.0871 16 22.6471 15 22.0871 13L19.1371 6H21.0871V4H14.9171C14.4871 2.8 13.3571 2 12.0871 2ZM12.0871 4C12.3523 4 12.6067 4.10536 12.7942 4.29289C12.9817 4.48043 13.0871 4.73478 13.0871 5C13.0871 5.26522 12.9817 5.51957 12.7942 5.70711C12.6067 5.89464 12.3523 6 12.0871 6C11.8219 6 11.5675 5.89464 11.38 5.70711C11.1924 5.51957 11.0871 5.26522 11.0871 5C11.0871 4.73478 11.1924 4.48043 11.38 4.29289C11.5675 4.10536 11.8219 4 12.0871 4ZM5.58709 9.25L7.08709 13H4.08709L5.58709 9.25ZM18.5871 9.25L20.0871 13H17.0871L18.5871 9.25Z" fill="#999999"></path>
</svg>
