<svg xmlns="http://www.w3.org/2000/svg" width="133" height="36"><path d="M0 18C0 8.1 8.1 0 18 0h97c9.9 0 18 8.1 18 18s-8.1 18-18 18H0V18z" fill="#ff680a"/><path d="M53.4 13h6.3v12.9h2.9V13h6.3v-2.5H53.4zM30.7 23.3h-1.2V10.4h-3v12.9h-9.3V10.4h-3v14c0 .8.7 1.5 1.5 1.5h13.7v2.3h2.8v-3.5c-.1-.8-.8-1.4-1.5-1.4zm18.7-12.8s-1-.2-1.8.7l-9.7 9.9V10.4h-3v14.3c0 .8.9 1.5 1.5 1.5s.7-.1 1-.4c.1 0 .1-.1.2-.2L48 15.1v10.7h3V11.9c-.1-.8-.8-1.4-1.6-1.4zM115 20.9c-.2.4-.5.8-.8 1.1-.5.5-1 .9-1.6 1.1-.6.3-1.2.4-2 .4-.7 0-1.4-.1-2-.4-.6-.3-1.1-.6-1.6-1.1-.5-.5-.9-1.1-1.1-1.7-.3-.6-.4-1.3-.3-2.2 0-.8.1-1.5.4-2.1.2-.6.6-1.2 1.1-1.7.5-.5 1-.9 1.6-1.1.6-.3 1.2-.4 2-.4.7 0 1.4.1 2 .4.6.3 1.1.6 1.6 1.1l2.3-1.8v-.1c-.8-.8-1.6-1.4-2.6-1.8-1-.4-2-.6-3.2-.6-1.1 0-2.2.2-3.2.6-1 .4-1.8 1-2.6 1.8s-1.3 1.6-1.7 2.6c-.4 1-.6 2-.6 3.2 0 1.2.2 2.2.6 3.2.4 1 1 1.9 1.7 2.7.8.8 1.6 1.4 2.6 1.8 1 .4 2 .6 3.2.6 1.1 0 2.2-.2 3.2-.6 1-.4 1.8-1 2.6-1.8.4-.4.7-.8 1-1.2l-2.6-2zM99.4 10.4l-3.9 8.4-4.9-8.4h-3.3L94 21.8c-.6 1.1-1.7 1.8-3 1.8-.8 0-1.5-.2-2.2-.4v2.7c.6.3 1.5.4 2.7.4 2.2 0 4.1-1.4 5.4-4.2l5.7-11.6h-3.2zm-19.7 0H73c-.8 0-1.5.7-1.5 1.5v14h3V21h5.1c2 0 3.5-.5 4.6-1.5 1.1-1 1.7-2.3 1.7-3.9s-.6-2.8-1.7-3.8c-1-.9-2.6-1.4-4.5-1.4zm-.3 8h-4.9V13h4.9c2.3 0 3.6 1 3.6 2.7 0 1.7-1.3 2.7-3.6 2.7z" fill="#fff"/></svg>