<svg width="24" height="24" fill="none" xmlns="http://www.w3.org/2000/svg"><path fill-rule="evenodd" clip-rule="evenodd" d="M21.799 8.019s-.194-1.371-.794-1.977c-.761-.792-1.612-.796-2.003-.842-2.8-.2-6.999-.2-6.999-.2h-.008s-4.197 0-6.997.202c-.391.046-1.242.05-2.003.842-.6.604-.795 1.975-.795 1.975S2 9.63 2 11.242v1.51c0 1.612.2 3.221.2 3.221s.195 1.371.795 1.976c.761.793 1.759.767 2.206.851 1.6.153 6.8.2 6.8.2s4.201-.006 7.001-.208c.391-.046 1.242-.05 2.003-.843.6-.603.794-1.976.794-1.976S22 14.362 22 12.752v-1.51a30.435 30.435 0 0 0-.201-3.223zM9.911 14.758V9.153L15 12l-5.089 2.758z" fill="#999"/></svg>